<svg id="Capa_1" data-name="Capa 1" xmlns="http://www.w3.org/2000/svg" viewBox="0 0 106.61 106.61"><defs><style>.cls-1{fill:none;stroke:#04baee;stroke-miterlimit:10;stroke-width:3px;}.cls-2{fill:#04baee;}</style></defs><title>audiencia-insta</title><circle class="cls-1" cx="53.3" cy="53.3" r="51.8"/><path class="cls-2" d="M74.74,26.43H35A12.52,12.52,0,0,0,22.5,38.94V78.67A12.52,12.52,0,0,0,35,91.18H74.74A12.53,12.53,0,0,0,87.26,78.67V38.94A12.53,12.53,0,0,0,74.74,26.43Zm3.59,7.46h1.43v11l-10.94,0,0-11ZM45.64,52.16a11.37,11.37,0,1,1-2.16,6.64A11.37,11.37,0,0,1,45.64,52.16ZM81,78.67a6.21,6.21,0,0,1-6.21,6.2H35a6.21,6.21,0,0,1-6.2-6.2V52.16h9.66a17.71,17.71,0,1,0,32.81,0H81Z" transform="translate(-1.57 -5.5)"/></svg>