<svg id="Capa_1" data-name="Capa 1" xmlns="http://www.w3.org/2000/svg" viewBox="0 0 51 51"><defs><style>.cls-1{fill:none;stroke:#0bbbef;stroke-miterlimit:10;}.cls-2{fill:#0bbbef;}</style></defs><title>audiencia-usuarios</title><circle class="cls-1" cx="25.5" cy="25.5" r="25"/><path class="cls-2" d="M34,21a5.25,5.25,0,1,1-5.25,5.25A5.25,5.25,0,0,1,34,21M23.5,24.77a4.41,4.41,0,0,1,2.3.63,8.29,8.29,0,0,0,1.69,5.94,4.5,4.5,0,1,1-4-6.57m21,0a4.5,4.5,0,1,1-4,6.57A8.29,8.29,0,0,0,42.2,25.4a4.41,4.41,0,0,1,2.3-.63M24.25,40.14c0-3.1,4.36-5.62,9.75-5.62s9.75,2.52,9.75,5.62v2.63H24.25V40.14M16,42.77V40.52c0-2.09,2.83-3.84,6.67-4.35a6.09,6.09,0,0,0-1.42,4v2.63H16m36,0H46.75V40.14a6,6,0,0,0-1.43-4c3.85.51,6.68,2.26,6.68,4.35Z" transform="translate(-8.87 -6.5)"/></svg>