<svg id="Capa_1" data-name="Capa 1" xmlns="http://www.w3.org/2000/svg" viewBox="0 0 51 51"><defs><style>.cls-1{fill:none;stroke:#0bbbef;stroke-miterlimit:10;}.cls-2{fill:#0bbbef;}</style></defs><title>audiencia-twitter</title><circle class="cls-1" cx="25.5" cy="25.5" r="25"/><path class="cls-2" d="M48.86,23a13,13,0,0,1-4.08,1.54A6.42,6.42,0,0,0,33.7,28.85a6.17,6.17,0,0,0,.16,1.44A18.3,18.3,0,0,1,20.65,23.7a6.2,6.2,0,0,0-.87,3.17,6.27,6.27,0,0,0,2.85,5.25,6.31,6.31,0,0,1-2.9-.79v.08a6.34,6.34,0,0,0,5.14,6.19,6.27,6.27,0,0,1-1.69.22A7,7,0,0,1,22,37.71a6.41,6.41,0,0,0,6,4.38,12.94,12.94,0,0,1-8,2.7c-.52,0-1,0-1.53-.08a18.37,18.37,0,0,0,9.83,2.83A18,18,0,0,0,46.54,29.59c0-.28,0-.55,0-.82a12.92,12.92,0,0,0,3.2-3.27,13.26,13.26,0,0,1-3.68,1A6.4,6.4,0,0,0,48.86,23Z" transform="translate(-8.59 -8.5)"/></svg>