<svg id="Capa_1" data-name="Capa 1" xmlns="http://www.w3.org/2000/svg" viewBox="0 0 51 51"><defs><style>.cls-1{fill:none;stroke:#0bbbef;stroke-miterlimit:10;}.cls-2{fill:#0bbbef;}</style></defs><title>audiencia-seguidores</title><circle class="cls-1" cx="25.5" cy="25.5" r="25"/><path class="cls-2" d="M22,40.14V43a7.05,7.05,0,0,1,7.05,7h2.81A9.85,9.85,0,0,0,22,40.14m0,5.63V50h4.23A4.24,4.24,0,0,0,22,45.77M22,34.5v2.82A12.68,12.68,0,0,1,34.68,50H37.5A15.49,15.49,0,0,0,22,34.5M43.14,19H29.05a2.82,2.82,0,0,0-2.82,2.82V32.2a19.26,19.26,0,0,1,2.82.89V24.64H43.14V43H38.87a18.32,18.32,0,0,1,1.34,5.64h2.93A2.81,2.81,0,0,0,46,45.77v-24A2.81,2.81,0,0,0,43.14,19Z" transform="translate(-8.53 -8.45)"/></svg>