<svg id="Capa_1" data-name="Capa 1" xmlns="http://www.w3.org/2000/svg" viewBox="0 0 102 102"><defs><style>.cls-1{fill:none;stroke:#04baee;stroke-miterlimit:10;stroke-width:3px;}.cls-2{fill:#04baee;}</style></defs><title>audiencia-twitter</title><circle class="cls-1" cx="51" cy="51" r="49.5"/><path class="cls-2" d="M83.68,36.33a25.46,25.46,0,0,1-8.06,3,12.79,12.79,0,0,0-9.27-3.95A12.53,12.53,0,0,0,54,50.76a36.23,36.23,0,0,1-26.16-13A12.29,12.29,0,0,0,26.1,44a12.46,12.46,0,0,0,5.65,10.4A12.94,12.94,0,0,1,26,52.83V53A12.56,12.56,0,0,0,36.18,65.24a13.07,13.07,0,0,1-3.34.44,12.58,12.58,0,0,1-2.39-.23,12.69,12.69,0,0,0,11.86,8.68,25.76,25.76,0,0,1-15.77,5.35,27.55,27.55,0,0,1-3-.17A36.42,36.42,0,0,0,43,84.92c23.35,0,36.12-19,36.12-35.55,0-.54,0-1.09,0-1.62a25.61,25.61,0,0,0,6.33-6.47,25.44,25.44,0,0,1-7.29,2A12.6,12.6,0,0,0,83.68,36.33Z" transform="translate(-3.44 -7.11)"/></svg>