<svg id="Capa_1" data-name="Capa 1" xmlns="http://www.w3.org/2000/svg" viewBox="0 0 102 102"><defs><style>.cls-1{fill:none;stroke:#04baee;stroke-miterlimit:10;stroke-width:3px;}.cls-2{fill:#04baee;}</style></defs><title>audiencia-usuarios</title><circle class="cls-1" cx="51" cy="51" r="49.5"/><path class="cls-2" d="M54.14,35.37A10.4,10.4,0,1,1,43.75,45.76,10.4,10.4,0,0,1,54.14,35.37M33.35,42.79A8.8,8.8,0,0,1,37.9,44,16.43,16.43,0,0,0,41.25,55.8a8.91,8.91,0,1,1-7.9-13m41.58,0a8.91,8.91,0,1,1-7.9,13A16.44,16.44,0,0,0,70.39,44a8.76,8.76,0,0,1,4.54-1.25M34.84,73.23c0-6.14,8.64-11.13,19.3-11.13s19.31,5,19.31,11.13v5.2H34.84v-5.2M18.5,78.43V74c0-4.13,5.62-7.61,13.22-8.62a12,12,0,0,0-2.82,7.87v5.2H18.5m71.28,0H79.39v-5.2a12,12,0,0,0-2.82-7.87c7.6,1,13.21,4.49,13.21,8.62Z" transform="translate(-3.87 -6.11)"/></svg>