<svg id="Capa_1" data-name="Capa 1" xmlns="http://www.w3.org/2000/svg" viewBox="0 0 51 51"><defs><style>.cls-1{fill:none;stroke:#0bbbef;stroke-miterlimit:10;}.cls-2{fill:#0bbbef;}</style></defs><title>audiencia-insta</title><circle class="cls-1" cx="25.5" cy="25.5" r="25"/><path class="cls-2" d="M43.61,18.33H24.44a6,6,0,0,0-6,6V43.54a6,6,0,0,0,6,6H43.61a6,6,0,0,0,6-6V24.37A6,6,0,0,0,43.61,18.33Zm1.74,3.6H46v5.29l-5.28,0,0-5.29ZM29.57,30.75a5.49,5.49,0,1,1-1,3.2A5.47,5.47,0,0,1,29.57,30.75Zm17,12.79a3,3,0,0,1-3,3H24.44a3,3,0,0,1-3-3V30.75h4.66A8.54,8.54,0,1,0,42.57,34a8.34,8.34,0,0,0-.63-3.2h4.67Z" transform="translate(-8.53 -8.45)"/></svg>