<svg id="Capa_1" data-name="Capa 1" xmlns="http://www.w3.org/2000/svg" viewBox="0 0 191.4 195.54"><title>avion</title><path d="M116,38.14a2.86,2.86,0,0,0,.1-4c-6.75-7.1-21.51-7.17-29.24-.15a2.86,2.86,0,1,0,3.85,4.24c5.47-5,16.58-5,21.24-.14A2.87,2.87,0,0,0,116,38.14Z" transform="translate(-5.33 -3.13)"/><path d="M141.91,112a23.21,23.21,0,0,0-17.32,7.77,2.87,2.87,0,0,0,4.28,3.81,17.45,17.45,0,1,1-4.42,11.6,2.87,2.87,0,0,0-5.73,0A23.19,23.19,0,1,0,141.91,112Z" transform="translate(-5.33 -3.13)"/><path d="M185.67,92.77V74a10.76,10.76,0,1,0-21.51,0v9.24l-6.07-2.62V62.17a10.76,10.76,0,0,0-21.52,0v9.18l-8.33-3.59,1.63-14.21c1.3-12.44-.63-23.27-5.59-31.3C119.88,15.1,111,3.13,101.09,3.13H101c-9.91,0-18.77,12-23.18,19.12-5,8-6.9,18.85-5.59,31.33l1.63,14.18-8.34,3.59V62.17a10.76,10.76,0,0,0-21.51,0V80.62L37.9,83.24V74a10.76,10.76,0,0,0-21.52,0V92.77c-7.2,4.41-11,12.2-11,18v9.35c0,4,1.13,6.85,3.36,8.56a8.79,8.79,0,0,0,5.56,1.69,20.72,20.72,0,0,0,5.25-.79l25.85-7a2.86,2.86,0,0,0-1.49-5.53l-25.85,7c-3.84,1-5.3.5-5.83.09-.93-.71-1.12-2.58-1.12-4v-9.35c0-4,3.25-11.14,10.49-14.26L63.71,78.35l0,0L74.5,73.7l3.92,34.11-21.79,5.87a2.86,2.86,0,0,0,.75,5.63,2.74,2.74,0,0,0,.74-.1l21-5.64,3.64,31.64L56.41,155.56a18.32,18.32,0,0,0-11.36,15.86v5.12c0,3.31,1,5.73,2.88,7.19a7.49,7.49,0,0,0,4.71,1.44,16.89,16.89,0,0,0,4.23-.62L100,174.19l.29-.07L101,174l.71.17,21.37,5.13c.94,1.22,1.88,2.45,2.8,3.67a1,1,0,0,0,.13.16l1.8,2.09c2.93,3.4,5.95,6.91,9,10.16l.09.08c1.62,1.73,2.79,3,4.59,3.24a2.75,2.75,0,0,0,.41,0,2.88,2.88,0,0,0,.41,0c1.81-.27,3-1.53,4.62-3.28l.05-.05c3.09-3.31,6.18-6.9,9.17-10.37l1.62-1.87c0-.05.09-.1.13-.16,1.14-1.53,2.34-3.08,3.49-4.58,6-7.87,12.3-16,15.75-25.78a50.26,50.26,0,0,0,2.58-23.73l2.84.76a20.14,20.14,0,0,0,5.23.79,8.79,8.79,0,0,0,5.56-1.69c2.23-1.71,3.37-4.59,3.37-8.56v-9.35c0-5.81-3.86-13.6-11.06-18Zm-136-30.6a5,5,0,0,1,10,0V73.82l-10,4.33ZM27.14,69a5,5,0,0,1,5,5V85.71L22.11,90V74A5,5,0,0,1,27.14,69Zm142.75,5a5,5,0,1,1,10.05,0V90l-10.05-4.33ZM142.3,62.17a5,5,0,0,1,10.06,0v16L142.3,73.82ZM103.1,168.56a6.52,6.52,0,0,0-4.14,0L55.5,179l-.08,0c-3,.81-3.86.3-4,.19s-.63-1.06-.63-2.65v-5.12a12.49,12.49,0,0,1,7.74-10.53l28.35-11.15a2.88,2.88,0,0,0,1.79-3l-8.9-77.47v0L77.88,53c-1.17-11.18.49-20.76,4.78-27.7C89,15,95.83,8.86,101,8.86h.13c5.14,0,12,6.12,18.32,16.4,4.28,6.94,5.93,16.52,4.77,27.67L122.3,69.22v0l-4,34.48a35.42,35.42,0,0,0-7.63,7.91c-7.71,11-9.23,26.25-4,40.91,2.55,7.2,6.61,13.52,11,19.49l-14.27-3.42Zm68.65-17.91c-3.15,8.91-9.12,16.68-14.89,24.2-1.15,1.49-2.33,3-3.48,4.56l-1.56,1.8c-2.95,3.43-6,7-9,10.2l0,.05-.86.9-.82-.87-.08-.08c-2.94-3.16-5.93-6.63-8.82-10l-1.75-2c-1.1-1.48-2.24-3-3.35-4.39l-.07-.09,0,0c-5.79-7.53-11.77-15.31-14.93-24.24-4.56-12.91-3.31-26.26,3.33-35.7,5.84-8.29,15.26-12.89,26.51-12.94s20.7,4.64,26.54,12.93c6.64,9.44,7.88,22.79,3.32,35.71ZM191,120.13c0,1.44-.2,3.31-1.13,4-.53.41-2,.94-5.82-.09l-5.7-1.53a37.63,37.63,0,0,0-5.24-10.88c-6.93-9.85-18-15.31-31.22-15.37A41.05,41.05,0,0,0,124.53,100l3-26.32,10.74,4.63.06,0,42.16,18.18c7.23,3.11,10.49,10.21,10.49,14.25v9.35Z" transform="translate(-5.33 -3.13)"/></svg>