<svg id="Capa_1" data-name="Capa 1" xmlns="http://www.w3.org/2000/svg" viewBox="0 0 80 80"><title>comercial</title><path d="M60.15,70.77a1.28,1.28,0,1,0,0-2.55H19.74a.2.2,0,0,1-.19-.19V21.35a.2.2,0,0,1,.19-.19H81.32a.2.2,0,0,1,.19.19V43.82a1.28,1.28,0,1,0,2.55,0V21.35a2.74,2.74,0,0,0-2.74-2.74H19.74A2.74,2.74,0,0,0,17,21.35V68a2.74,2.74,0,0,0,2.74,2.74h23v7.71H32.94a1.28,1.28,0,1,0,0,2.55H60.15a1.28,1.28,0,1,0,0-2.55H58.31V70.77Zm-4.39,7.71H45.31V70.77H55.76Z" transform="translate(-17 -18.61)"/><path d="M60.15,59.56H23.38a1.28,1.28,0,0,0,0,2.56H60.15a1.28,1.28,0,1,0,0-2.56Z" transform="translate(-17 -18.61)"/><path d="M94.26,47.65H66.72A2.74,2.74,0,0,0,64,50.39V95.87a2.74,2.74,0,0,0,2.74,2.74H94.26A2.74,2.74,0,0,0,97,95.87V50.39A2.74,2.74,0,0,0,94.26,47.65ZM66.53,55.31H94.45V85.84H66.53Zm.19-5.11H94.26a.2.2,0,0,1,.19.19v2.37H66.53V50.39A.2.2,0,0,1,66.72,50.2ZM94.26,96.06H66.72a.2.2,0,0,1-.19-.19V88.4H94.45v7.47A.2.2,0,0,1,94.26,96.06Z" transform="translate(-17 -18.61)"/><path d="M83,91h-5.1a1.28,1.28,0,1,0,0,2.55H83A1.28,1.28,0,1,0,83,91Z" transform="translate(-17 -18.61)"/></svg>