<?xml version="1.0" encoding="UTF-8"?><svg xmlns="http://www.w3.org/2000/svg" viewBox="0 0 149.4 162.3"><defs><style>.d{fill:#fff;}</style></defs><g id="a"/><g id="b"><g id="c"><g><path class="d" d="M60.1,77.6c0-10.7,8.6-19.3,19.3-19.3h70v69.9c0,10.7-8.6,19.3-19.3,19.3h-26.7c-7.8,8.7-24.5,14.8-24.5,14.8,5.9-5.2,9.3-10.4,11.4-14.8h-30.1V77.6h-.1Z"/><path class="d" d="M73,9.1c0-5-4.1-9.1-9.1-9.1H31V32.9c0,5,4.1,9.1,9.1,9.1h12.6c3.7,4.1,11.5,7,11.5,7-2.8-2.4-4.4-4.9-5.4-7h14.2V9.1h0Z"/><path class="d" d="M50.9,66.8c0-6.1-4.9-11-11-11H0v39.8c0,6.1,4.9,11,11,11h15.2c4.5,5,14,8.4,14,8.4-3.4-3-5.3-5.9-6.5-8.4h17.2v-39.8h0Z"/></g></g></g></svg>