<svg id="Capa_1" data-name="Capa 1" xmlns="http://www.w3.org/2000/svg" viewBox="0 0 223.58 76"><defs><style>.cls-1{fill:#fff;}.cls-2{fill:#939393;}.cls-3{fill:#5b5b5b;}.cls-4{fill:#757574;}</style></defs><title>footer-logo</title><path class="cls-1" d="M139.25,54.49a12.86,12.86,0,0,1,5.32,1.1A13.32,13.32,0,0,1,149,58.53a13.83,13.83,0,0,1,4,9.66V82h-5.45V68.19A7.52,7.52,0,0,0,146.9,65a8.39,8.39,0,0,0-4.41-4.41,8.28,8.28,0,0,0-9.11,1.78A8.57,8.57,0,0,0,131.61,65a8.15,8.15,0,0,0-.61,3.18V82h-5.45V68.19a7.52,7.52,0,0,0-.67-3.18,8.39,8.39,0,0,0-4.41-4.41,8.28,8.28,0,0,0-9.11,1.78A8.57,8.57,0,0,0,109.59,65a8.15,8.15,0,0,0-.61,3.18V82h-5.45V68.19a13.5,13.5,0,0,1,1-5.32,13.92,13.92,0,0,1,2.94-4.34,14,14,0,0,1,9.72-4A12.82,12.82,0,0,1,123.47,56a13.4,13.4,0,0,1,4.77,4A13.57,13.57,0,0,1,133,56a13.1,13.1,0,0,1,6.24-1.53" transform="translate(-20 -20.61)"/><rect class="cls-1" x="136.26" y="33.88" width="5.38" height="27.46"/><path class="cls-2" d="M190.88,54.36,176.56,81.89,162.31,54.36h6.12l1.95,3.8c.74,1.38,1.47,2.81,2.21,4.28s1.45,2.81,2.14,4.16,1.34,2.51,1.83,3.48c.61-1.18,1.31-2.52,2.08-4S180.25,63,181,61.46s1.49-2.9,2.14-4.16,1.16-2.28,1.53-2.94Z" transform="translate(-20 -20.61)"/><path class="cls-2" d="M188.25,68.31a13.32,13.32,0,0,1,1-5.32,14,14,0,0,1,2.93-4.34,13.38,13.38,0,0,1,4.4-2.94,13.21,13.21,0,0,1,5.33-1.1,12.89,12.89,0,0,1,5.32,1.1,13.28,13.28,0,0,1,4.4,2.94,13.72,13.72,0,0,1,4,9.66,13.13,13.13,0,0,1-1.1,5.32A13.74,13.74,0,0,1,211.67,78a14.23,14.23,0,0,1-4.4,3,13.36,13.36,0,0,1-5.32,1,13.69,13.69,0,0,1-5.33-1,14.35,14.35,0,0,1-4.4-3,15,15,0,0,1-2.93-4.41,13.6,13.6,0,0,1-1-5.32m5.38,0a8.6,8.6,0,0,0,.61,3.24A9.38,9.38,0,0,0,196,74.24,9.47,9.47,0,0,0,198.7,76a8.29,8.29,0,0,0,9.12-1.78,8.69,8.69,0,0,0,2.44-5.93,7.52,7.52,0,0,0-.67-3.18,7.36,7.36,0,0,0-1.77-2.63,7.19,7.19,0,0,0-2.63-1.77A8.5,8.5,0,0,0,196,62.5a8.57,8.57,0,0,0-1.77,2.63,8.15,8.15,0,0,0-.61,3.18" transform="translate(-20 -20.61)"/><path class="cls-2" d="M242,54.55c-2.28,3.1-4.43,6.07-6.42,8.93L233,67.21c-.9,1.22-1.76,2.43-2.57,3.61l-2.33,3.24c-.73,1-1.34,1.82-1.83,2.51h16.33V82h-27Q219,77.36,222,73.08q1.28-1.83,2.63-3.67c.94-1.26,1.81-2.47,2.63-3.61s1.59-2.26,2.32-3.24,1.35-1.87,1.84-2.57H215.1V54.55Z" transform="translate(-20 -20.61)"/><path class="cls-1" d="M90.83,56.4a9.15,9.15,0,0,0-9.15-9.15H48.5V80.43a9.15,9.15,0,0,0,9.15,9.15H70.31c3.71,4.14,11.62,7,11.62,7a21.2,21.2,0,0,1-5.4-7h14.3V56.4Z" transform="translate(-20 -20.61)"/><path class="cls-3" d="M54.6,24.92a4.31,4.31,0,0,0-4.31-4.31H34.67V36.23A4.31,4.31,0,0,0,39,40.54h6c1.74,2,5.47,3.31,5.47,3.31a10,10,0,0,1-2.55-3.31H54.6V24.92Z" transform="translate(-20 -20.61)"/><path class="cls-4" d="M20,52.28a5.21,5.21,0,0,1,5.22-5.21H44.13V66a5.22,5.22,0,0,1-5.22,5.22H31.7c-2.12,2.36-6.63,4-6.63,4a12.07,12.07,0,0,0,3.08-4H20V52.28Z" transform="translate(-20 -20.61)"/><polygon class="cls-2" points="83.82 66.48 84.81 66.48 84.81 72.93 88.52 72.93 88.52 73.8 83.82 73.8 83.82 66.48"/><path class="cls-2" d="M110.31,93.6a1.07,1.07,0,0,0,.68.23,2.1,2.1,0,0,0,.91-.22,1.24,1.24,0,0,0,.75-1.19v-.73a1.65,1.65,0,0,1-.42.18,5.09,5.09,0,0,1-.51.1l-.54.07a2.15,2.15,0,0,0-.74.2A.81.81,0,0,0,110,93a.76.76,0,0,0,.28.61m1.89-2.43a.49.49,0,0,0,.42-.25.82.82,0,0,0,.06-.35.71.71,0,0,0-.33-.66,1.73,1.73,0,0,0-.93-.21,1.18,1.18,0,0,0-1,.38,1.28,1.28,0,0,0-.22.62h-.83a1.52,1.52,0,0,1,.64-1.37,2.6,2.6,0,0,1,1.43-.39,2.94,2.94,0,0,1,1.53.36,1.23,1.23,0,0,1,.58,1.12v3.07a.52.52,0,0,0,0,.23.32.32,0,0,0,.25.08H114l.16,0v.66l-.32.08h-.3a.76.76,0,0,1-.67-.32,1.41,1.41,0,0,1-.15-.5,2.3,2.3,0,0,1-.79.62,2.39,2.39,0,0,1-1.13.27,1.7,1.7,0,0,1-1.22-.45,1.52,1.52,0,0,1-.47-1.13,1.44,1.44,0,0,1,.47-1.15,2.19,2.19,0,0,1,1.21-.51Z" transform="translate(-20 -20.61)"/><path class="cls-2" d="M117.81,89.07h.86V90a2.07,2.07,0,0,1,.51-.65,1.33,1.33,0,0,1,.94-.39h.09l.2,0v.94l-.15,0h-.14a1.27,1.27,0,0,0-1.05.44,1.52,1.52,0,0,0-.36,1v3.07h-.9Z" transform="translate(-20 -20.61)"/><path class="cls-2" d="M124.48,89.22a2.06,2.06,0,0,1,.81.69,2.37,2.37,0,0,1,.36.94,6.5,6.5,0,0,1,.08,1.18h-3.91a2.23,2.23,0,0,0,.38,1.3,1.28,1.28,0,0,0,1.11.49,1.41,1.41,0,0,0,1.12-.46,1.49,1.49,0,0,0,.34-.63h.89a2.05,2.05,0,0,1-.24.66A2.11,2.11,0,0,1,125,94a2,2,0,0,1-1,.54,3.26,3.26,0,0,1-.73.08,2.25,2.25,0,0,1-1.69-.72,2.87,2.87,0,0,1-.7-2,3.1,3.1,0,0,1,.7-2.09,2.34,2.34,0,0,1,1.83-.8,2.41,2.41,0,0,1,1.1.27m.33,2.09a2.28,2.28,0,0,0-.26-.93,1.29,1.29,0,0,0-1.23-.65,1.33,1.33,0,0,0-1,.45,1.69,1.69,0,0,0-.45,1.13Z" transform="translate(-20 -20.61)"/><path class="cls-2" d="M127.73,93.24a1.29,1.29,0,0,0,1.17.58,1.23,1.23,0,0,0,1-.54,2.52,2.52,0,0,0,.4-1.54,2.28,2.28,0,0,0-.41-1.49,1.29,1.29,0,0,0-1-.49,1.36,1.36,0,0,0-1.11.52,2.42,2.42,0,0,0-.41,1.52,2.7,2.7,0,0,0,.36,1.44m2-4a2.62,2.62,0,0,1,.55.53v-2.7h.86v7.35h-.81v-.74a1.92,1.92,0,0,1-.74.71,2.08,2.08,0,0,1-1,.22,2,2,0,0,1-1.55-.75,3,3,0,0,1-.65-2,3.49,3.49,0,0,1,.59-2,2,2,0,0,1,1.71-.85,1.88,1.88,0,0,1,1,.25" transform="translate(-20 -20.61)"/><path class="cls-2" d="M136.18,93.24a1.28,1.28,0,0,0,1.16.58,1.23,1.23,0,0,0,1-.54,2.59,2.59,0,0,0,.4-1.54,2.28,2.28,0,0,0-.41-1.49,1.29,1.29,0,0,0-1-.49,1.34,1.34,0,0,0-1.1.52,2.35,2.35,0,0,0-.42,1.52,2.61,2.61,0,0,0,.37,1.44m2-4a2.39,2.39,0,0,1,.54.53v-2.7h.87v7.35h-.81v-.74a2,2,0,0,1-.74.71,2.12,2.12,0,0,1-1,.22,2,2,0,0,1-1.54-.75,2.92,2.92,0,0,1-.65-2,3.41,3.41,0,0,1,.59-2,2.16,2.16,0,0,1,2.73-.6" transform="translate(-20 -20.61)"/><path class="cls-2" d="M144.21,89.22a2.09,2.09,0,0,1,.82.69,2.22,2.22,0,0,1,.35.94,5.69,5.69,0,0,1,.08,1.18h-3.91a2.3,2.3,0,0,0,.39,1.3,1.28,1.28,0,0,0,1.11.49,1.43,1.43,0,0,0,1.12-.46,1.61,1.61,0,0,0,.34-.63h.88a1.8,1.8,0,0,1-.23.66,2.33,2.33,0,0,1-.44.59,2.06,2.06,0,0,1-1,.54,3.2,3.2,0,0,1-.73.08,2.26,2.26,0,0,1-1.69-.72,2.86,2.86,0,0,1-.69-2,3.05,3.05,0,0,1,.7-2.09,2.3,2.3,0,0,1,1.82-.8,2.38,2.38,0,0,1,1.1.27m.33,2.09a2.29,2.29,0,0,0-.25-.93,1.32,1.32,0,0,0-1.23-.65,1.36,1.36,0,0,0-1,.45,1.64,1.64,0,0,0-.44,1.13Z" transform="translate(-20 -20.61)"/><path class="cls-1" d="M151,88.34v4.79h1.41a1.53,1.53,0,0,0,1.52-1.07,3.91,3.91,0,0,0,.23-1.4,3.48,3.48,0,0,0-.35-1.72,1.49,1.49,0,0,0-1.4-.6Zm2.81-1.12a2.46,2.46,0,0,1,1.25.93,3.33,3.33,0,0,1,.52,1.19,5.93,5.93,0,0,1,.14,1.22,4.92,4.92,0,0,1-.59,2.48,2.65,2.65,0,0,1-2.46,1.37h-3.17V87.06h3.17a4,4,0,0,1,1.14.16" transform="translate(-20 -20.61)"/><path class="cls-1" d="M158.14,88.33H156.7V87h1.44ZM156.7,89h1.44v5.43H156.7Z" transform="translate(-20 -20.61)"/><path class="cls-1" d="M162.48,91.77a2.44,2.44,0,0,1-.28.14l-.37.09-.32.06a1.85,1.85,0,0,0-.64.2.65.65,0,0,0-.33.6.66.66,0,0,0,.2.53.8.8,0,0,0,.49.16,1.4,1.4,0,0,0,.84-.27,1.15,1.15,0,0,0,.41-1Zm-.86-.67a2.08,2.08,0,0,0,.56-.12.43.43,0,0,0,.3-.4.47.47,0,0,0-.23-.46,1.37,1.37,0,0,0-.68-.13.86.86,0,0,0-.71.25,1,1,0,0,0-.2.5h-1.37a2.08,2.08,0,0,1,.4-1.18,2.33,2.33,0,0,1,1.93-.71,3.44,3.44,0,0,1,1.59.35,1.37,1.37,0,0,1,.69,1.34V93c0,.17,0,.38,0,.63A.94.94,0,0,0,164,94a.58.58,0,0,0,.21.16v.21h-1.54a1,1,0,0,1-.09-.31,3,3,0,0,1,0-.33,3.34,3.34,0,0,1-.68.55,2.11,2.11,0,0,1-1,.26,1.79,1.79,0,0,1-1.22-.42,1.51,1.51,0,0,1-.48-1.2,1.55,1.55,0,0,1,.78-1.45,3.43,3.43,0,0,1,1.24-.35Z" transform="translate(-20 -20.61)"/><path class="cls-1" d="M168.14,88.85h.13v1.45l-.24,0h-.17a1.16,1.16,0,0,0-1.15.56,2.14,2.14,0,0,0-.17,1v2.6h-1.43V89h1.36v.94a3.06,3.06,0,0,1,.57-.74,1.58,1.58,0,0,1,1-.33h.06" transform="translate(-20 -20.61)"/><path class="cls-1" d="M170.53,88.33h-1.45V87h1.45Zm-1.45.65h1.45v5.43h-1.45Z" transform="translate(-20 -20.61)"/><path class="cls-1" d="M175.26,93a2.49,2.49,0,0,0,0-2.51,1.11,1.11,0,0,0-.95-.45,1.15,1.15,0,0,0-1,.45,2.55,2.55,0,0,0,0,2.51,1.15,1.15,0,0,0,1,.45,1.11,1.11,0,0,0,.95-.45m1.14.79a3,3,0,0,1-4.18,0,3.38,3.38,0,0,1,0-4.09,3,3,0,0,1,4.18,0,3.38,3.38,0,0,1,0,4.09" transform="translate(-20 -20.61)"/><path class="cls-1" d="M179.18,92.67a.91.91,0,0,0,.19.54,1.32,1.32,0,0,0,1,.29,1.36,1.36,0,0,0,.66-.13.39.39,0,0,0,.25-.37.43.43,0,0,0-.2-.37,8.53,8.53,0,0,0-1.48-.42,3.17,3.17,0,0,1-1.3-.58,1.24,1.24,0,0,1-.38-1,1.71,1.71,0,0,1,.59-1.3,2.37,2.37,0,0,1,1.66-.54,3.07,3.07,0,0,1,1.66.41,1.75,1.75,0,0,1,.74,1.4h-1.42a.84.84,0,0,0-.16-.43,1,1,0,0,0-.8-.29,1.2,1.2,0,0,0-.66.14.42.42,0,0,0-.19.34.39.39,0,0,0,.21.36,10.13,10.13,0,0,0,1.48.39,2.74,2.74,0,0,1,1.27.6,1.39,1.39,0,0,1,.42,1,1.69,1.69,0,0,1-.61,1.33,3.67,3.67,0,0,1-3.75,0,1.81,1.81,0,0,1-.6-1.39Z" transform="translate(-20 -20.61)"/><path class="cls-1" d="M187.34,87.83a3.49,3.49,0,0,1,5,.31,2.72,2.72,0,0,1,.51,1.37h-1.54a2.21,2.21,0,0,0-.38-.8,1.57,1.57,0,0,0-1.24-.48,1.54,1.54,0,0,0-1.32.68,3.19,3.19,0,0,0-.49,1.91,2.85,2.85,0,0,0,.51,1.85,1.63,1.63,0,0,0,1.3.62,1.48,1.48,0,0,0,1.23-.53,2.17,2.17,0,0,0,.39-.85h1.52a3.25,3.25,0,0,1-1,2,3,3,0,0,1-2.1.75,3.17,3.17,0,0,1-2.49-1,4.78,4.78,0,0,1,.12-5.77" transform="translate(-20 -20.61)"/><path class="cls-1" d="M195.32,88.33h-1.45V87h1.45Zm-1.45.65h1.45v5.43h-1.45Z" transform="translate(-20 -20.61)"/><path class="cls-1" d="M198.07,89v3.27a1.79,1.79,0,0,0,.11.7.76.76,0,0,0,.77.41,1,1,0,0,0,1-.59,2,2,0,0,0,.14-.84V89h1.44v5.43h-1.38v-.77a1.17,1.17,0,0,1-.1.15.79.79,0,0,1-.19.22,2,2,0,0,1-.64.41,2.29,2.29,0,0,1-.73.11,1.63,1.63,0,0,1-1.63-.87,3.43,3.43,0,0,1-.23-1.41V89Z" transform="translate(-20 -20.61)"/><path class="cls-1" d="M205.74,89.07a1.67,1.67,0,0,1,.62.59V87.07h1.44v7.34h-1.38v-.75a2,2,0,0,1-.69.7,1.91,1.91,0,0,1-1,.22,2,2,0,0,1-1.6-.77,3,3,0,0,1-.65-2,3.42,3.42,0,0,1,.64-2.19,2.09,2.09,0,0,1,1.71-.79,1.69,1.69,0,0,1,.88.22m.35,3.86a2,2,0,0,0,.31-1.16,1.75,1.75,0,0,0-.5-1.42,1.07,1.07,0,0,0-.72-.26,1,1,0,0,0-.91.47,2.57,2.57,0,0,0,0,2.37,1,1,0,0,0,.9.45,1.06,1.06,0,0,0,.92-.45" transform="translate(-20 -20.61)"/><path class="cls-1" d="M212.06,91.77a2.44,2.44,0,0,1-.28.14l-.37.09-.32.06a1.85,1.85,0,0,0-.64.2.65.65,0,0,0-.33.6.66.66,0,0,0,.2.53.8.8,0,0,0,.49.16,1.4,1.4,0,0,0,.84-.27,1.15,1.15,0,0,0,.41-1Zm-.86-.67a2.08,2.08,0,0,0,.56-.12.43.43,0,0,0,.3-.4.47.47,0,0,0-.23-.46,1.37,1.37,0,0,0-.68-.13.86.86,0,0,0-.71.25,1,1,0,0,0-.2.5h-1.37a2.08,2.08,0,0,1,.4-1.18,2.33,2.33,0,0,1,1.93-.71,3.44,3.44,0,0,1,1.59.35,1.37,1.37,0,0,1,.69,1.34V93c0,.17,0,.38,0,.63a.94.94,0,0,0,.08.38.58.58,0,0,0,.21.16v.21h-1.54a1,1,0,0,1-.09-.31,3,3,0,0,1,0-.33,3.34,3.34,0,0,1-.68.55,2.11,2.11,0,0,1-1,.26,1.79,1.79,0,0,1-1.22-.42,1.51,1.51,0,0,1-.48-1.2,1.55,1.55,0,0,1,.78-1.45,3.43,3.43,0,0,1,1.24-.35Z" transform="translate(-20 -20.61)"/><path class="cls-1" d="M217.59,89.07a1.75,1.75,0,0,1,.62.59V87.07h1.44v7.34h-1.38v-.75a2,2,0,0,1-.69.7,1.91,1.91,0,0,1-1,.22,2,2,0,0,1-1.61-.77,3,3,0,0,1-.64-2,3.48,3.48,0,0,1,.63-2.19,2.11,2.11,0,0,1,1.72-.79,1.72,1.72,0,0,1,.88.22m.35,3.86a2,2,0,0,0,.31-1.16,1.78,1.78,0,0,0-.5-1.42,1.07,1.07,0,0,0-.72-.26,1,1,0,0,0-.92.47,2.2,2.2,0,0,0-.29,1.17,2.13,2.13,0,0,0,.3,1.2,1,1,0,0,0,.9.45,1.06,1.06,0,0,0,.92-.45" transform="translate(-20 -20.61)"/><path class="cls-1" d="M223.9,91.77l-.27.14-.37.09-.32.06a1.92,1.92,0,0,0-.65.2.65.65,0,0,0-.33.6.66.66,0,0,0,.2.53.85.85,0,0,0,.5.16,1.45,1.45,0,0,0,.84-.27,1.14,1.14,0,0,0,.4-1ZM223,91.1a2.08,2.08,0,0,0,.56-.12.43.43,0,0,0,.31-.4.46.46,0,0,0-.24-.46A1.32,1.32,0,0,0,223,90a.89.89,0,0,0-.72.25,1.09,1.09,0,0,0-.2.5h-1.37a2.16,2.16,0,0,1,.4-1.18,2.35,2.35,0,0,1,1.94-.71,3.37,3.37,0,0,1,1.58.35,1.37,1.37,0,0,1,.69,1.34V93c0,.17,0,.38,0,.63a.78.78,0,0,0,.09.38.58.58,0,0,0,.21.16v.21h-1.55a2.12,2.12,0,0,1-.09-.31c0-.1,0-.21,0-.33a3.28,3.28,0,0,1-.67.55,2.14,2.14,0,0,1-1,.26,1.79,1.79,0,0,1-1.22-.42,1.51,1.51,0,0,1-.48-1.2,1.57,1.57,0,0,1,.77-1.45,3.49,3.49,0,0,1,1.25-.35Z" transform="translate(-20 -20.61)"/><path class="cls-1" d="M230.94,89.29a1.78,1.78,0,0,1,.54,1.46v3.66H230V91.1a1.59,1.59,0,0,0-.11-.65.81.81,0,0,0-.8-.42,1,1,0,0,0-1,.61,2,2,0,0,0-.14.83v2.94h-1.42V89h1.37v.79a2.53,2.53,0,0,1,.52-.6,1.79,1.79,0,0,1,1.11-.33,2.08,2.08,0,0,1,1.38.44" transform="translate(-20 -20.61)"/><path class="cls-1" d="M236.15,93a2.55,2.55,0,0,0,0-2.51,1.12,1.12,0,0,0-1-.45,1.14,1.14,0,0,0-1,.45,2.55,2.55,0,0,0,0,2.51,1.14,1.14,0,0,0,1,.45,1.12,1.12,0,0,0,1-.45m1.13.79a3,3,0,0,1-4.17,0,3.38,3.38,0,0,1,0-4.09,3,3,0,0,1,4.17,0,3.38,3.38,0,0,1,0,4.09" transform="translate(-20 -20.61)"/><path class="cls-1" d="M240.06,92.67a.91.91,0,0,0,.2.54,1.29,1.29,0,0,0,1,.29,1.43,1.43,0,0,0,.67-.13.41.41,0,0,0,.25-.37.43.43,0,0,0-.2-.37,8.86,8.86,0,0,0-1.48-.42,3.11,3.11,0,0,1-1.3-.58,1.2,1.2,0,0,1-.38-1,1.67,1.67,0,0,1,.59-1.3,2.37,2.37,0,0,1,1.66-.54,3,3,0,0,1,1.65.41,1.73,1.73,0,0,1,.74,1.4H242a.84.84,0,0,0-.15-.43,1,1,0,0,0-.8-.29,1.2,1.2,0,0,0-.66.14.43.43,0,0,0-.2.34.39.39,0,0,0,.21.36,10.56,10.56,0,0,0,1.48.39,2.64,2.64,0,0,1,1.27.6,1.39,1.39,0,0,1,.42,1,1.69,1.69,0,0,1-.6,1.33,2.89,2.89,0,0,1-1.86.5,2.86,2.86,0,0,1-1.89-.53,1.82,1.82,0,0,1-.61-1.39Z" transform="translate(-20 -20.61)"/></svg>