<svg id="Capa_1" data-name="Capa 1" xmlns="http://www.w3.org/2000/svg" viewBox="0 0 222.56 76"><defs><style>.cls-1{fill:#fff;}.cls-2{fill:#939393;}.cls-3{fill:#5b5b5b;}.cls-4{fill:#757574;}</style></defs><title>footer-logo-sinbajada</title><path class="cls-1" d="M139.25,54.49a12.86,12.86,0,0,1,5.32,1.1A13.32,13.32,0,0,1,149,58.53a13.83,13.83,0,0,1,4,9.66V82h-5.45V68.19A7.52,7.52,0,0,0,146.9,65a8.39,8.39,0,0,0-4.41-4.41,8.28,8.28,0,0,0-9.11,1.78A8.57,8.57,0,0,0,131.61,65a8.15,8.15,0,0,0-.61,3.18V82h-5.45V68.19a7.52,7.52,0,0,0-.67-3.18,8.39,8.39,0,0,0-4.41-4.41,8.28,8.28,0,0,0-9.11,1.78A8.57,8.57,0,0,0,109.59,65a8.15,8.15,0,0,0-.61,3.18V82h-5.45V68.19a13.5,13.5,0,0,1,1-5.32,13.92,13.92,0,0,1,2.94-4.34,14,14,0,0,1,9.72-4A12.82,12.82,0,0,1,123.47,56a13.4,13.4,0,0,1,4.77,4A13.57,13.57,0,0,1,133,56a13.1,13.1,0,0,1,6.24-1.53" transform="translate(-20 -20.61)"/><rect class="cls-1" x="136.26" y="33.88" width="5.38" height="27.46"/><path class="cls-2" d="M190.88,54.36,176.56,81.89,162.31,54.36h6.12l1.95,3.8c.74,1.38,1.47,2.81,2.21,4.28s1.45,2.81,2.14,4.16,1.34,2.51,1.83,3.48c.61-1.18,1.31-2.52,2.08-4S180.25,63,181,61.46s1.49-2.9,2.14-4.16,1.16-2.28,1.53-2.94Z" transform="translate(-20 -20.61)"/><path class="cls-2" d="M188.25,68.31a13.32,13.32,0,0,1,1-5.32,14,14,0,0,1,2.93-4.34,13.38,13.38,0,0,1,4.4-2.94,13.21,13.21,0,0,1,5.33-1.1,12.89,12.89,0,0,1,5.32,1.1,13.28,13.28,0,0,1,4.4,2.94,13.72,13.72,0,0,1,4,9.66,13.13,13.13,0,0,1-1.1,5.32A13.74,13.74,0,0,1,211.67,78a14.23,14.23,0,0,1-4.4,3,13.36,13.36,0,0,1-5.32,1,13.69,13.69,0,0,1-5.33-1,14.35,14.35,0,0,1-4.4-3,15,15,0,0,1-2.93-4.41,13.6,13.6,0,0,1-1-5.32m5.38,0a8.6,8.6,0,0,0,.61,3.24A9.38,9.38,0,0,0,196,74.24,9.47,9.47,0,0,0,198.7,76a8.29,8.29,0,0,0,9.12-1.78,8.69,8.69,0,0,0,2.44-5.93,7.52,7.52,0,0,0-.67-3.18,7.36,7.36,0,0,0-1.77-2.63,7.19,7.19,0,0,0-2.63-1.77A8.5,8.5,0,0,0,196,62.5a8.57,8.57,0,0,0-1.77,2.63,8.15,8.15,0,0,0-.61,3.18" transform="translate(-20 -20.61)"/><path class="cls-2" d="M242,54.55c-2.28,3.1-4.43,6.07-6.42,8.93L233,67.21c-.9,1.22-1.76,2.43-2.57,3.61l-2.33,3.24c-.73,1-1.34,1.82-1.83,2.51h16.33V82h-27Q219,77.36,222,73.08q1.28-1.83,2.63-3.67c.94-1.26,1.81-2.47,2.63-3.61s1.59-2.26,2.32-3.24,1.35-1.87,1.84-2.57H215.1V54.55Z" transform="translate(-20 -20.61)"/><path class="cls-1" d="M90.83,56.4a9.15,9.15,0,0,0-9.15-9.15H48.5V80.43a9.15,9.15,0,0,0,9.15,9.15H70.31c3.71,4.14,11.62,7,11.62,7a21.2,21.2,0,0,1-5.4-7h14.3V56.4Z" transform="translate(-20 -20.61)"/><path class="cls-3" d="M54.6,24.92a4.31,4.31,0,0,0-4.31-4.31H34.67V36.23A4.31,4.31,0,0,0,39,40.54h6c1.74,2,5.47,3.31,5.47,3.31a10,10,0,0,1-2.55-3.31H54.6V24.92Z" transform="translate(-20 -20.61)"/><path class="cls-4" d="M20,52.28a5.21,5.21,0,0,1,5.22-5.21H44.13V66a5.22,5.22,0,0,1-5.22,5.22H31.7c-2.12,2.36-6.63,4-6.63,4a12.07,12.07,0,0,0,3.08-4H20V52.28Z" transform="translate(-20 -20.61)"/></svg>