<svg id="Capa_1" data-name="Capa 1" xmlns="http://www.w3.org/2000/svg" viewBox="0 0 41.5 41.5"><defs><style>.cls-1{fill:#fff;}.cls-2{fill:none;stroke:#fff;stroke-miterlimit:10;}</style></defs><title>footer-tw</title><path class="cls-1" d="M69.59,49.66a10.7,10.7,0,0,1-3.38,1.28,5.39,5.39,0,0,0-3.9-1.66,5.25,5.25,0,0,0-5.19,6.45,15.22,15.22,0,0,1-11-5.49,5.17,5.17,0,0,0-.72,2.64,5.23,5.23,0,0,0,2.37,4.37,5.44,5.44,0,0,1-2.41-.65v.06a5.28,5.28,0,0,0,4.28,5.15,5.61,5.61,0,0,1-2.41.09,5.34,5.34,0,0,0,5,3.65,10.82,10.82,0,0,1-6.63,2.24,10.69,10.69,0,0,1-1.27-.07,15.29,15.29,0,0,0,8.18,2.36A14.94,14.94,0,0,0,67.66,55.14c0-.23,0-.45,0-.68a10.58,10.58,0,0,0,2.66-2.72,10.73,10.73,0,0,1-3.06.83A5.28,5.28,0,0,0,69.59,49.66Z" transform="translate(-36.5 -38.61)"/><circle class="cls-2" cx="20.75" cy="20.75" r="20.25"/></svg>