<svg id="Capa_1" data-name="Capa 1" xmlns="http://www.w3.org/2000/svg" viewBox="0 0 41.5 41.5"><defs><style>.cls-1{fill:#fff;}.cls-2{fill:none;stroke:#fff;stroke-miterlimit:10;}</style></defs><title>footer-insta</title><path class="cls-1" d="M64.51,47.36H50.25a4.5,4.5,0,0,0-4.5,4.49V66.12a4.5,4.5,0,0,0,4.5,4.49H64.51A4.5,4.5,0,0,0,69,66.12V51.85A4.5,4.5,0,0,0,64.51,47.36ZM65.8,50h.51V54H62.38V50.05ZM54.06,56.6a4.07,4.07,0,0,1,6.63,0A4,4,0,0,1,61.47,59a4.1,4.1,0,1,1-7.41-2.39Zm12.68,9.52a2.22,2.22,0,0,1-2.23,2.22H50.25A2.22,2.22,0,0,1,48,66.12V56.6h3.47a6.36,6.36,0,1,0,11.77,0h3.48Z" transform="translate(-36.5 -38.61)"/><circle class="cls-2" cx="20.75" cy="20.75" r="20.25"/></svg>