<?xml version="1.0" encoding="utf-8"?>
<!-- Generator: Adobe Illustrator 26.1.0, SVG Export Plug-In . SVG Version: 6.00 Build 0)  -->
<svg version="1.1" id="Capa_1" xmlns="http://www.w3.org/2000/svg" xmlns:xlink="http://www.w3.org/1999/xlink" x="0px" y="0px"
	 viewBox="0 0 97.1 103.5" style="enable-background:new 0 0 97.1 103.5;" xml:space="preserve">
<style type="text/css">
	.st0{fill:#04BAEE;}
</style>
<path class="st0" d="M21.7,61.8c-0.5,0-1-0.2-1.3-0.5L11,51.9H3.8c-1,0-1.9-0.8-1.9-1.9l0,0V14.4c0-1,0.8-1.9,1.9-1.9h51.6
	c1,0,1.9,0.8,1.9,1.9l0,0v35.7c0,1-0.8,1.9-1.9,1.9l0,0h-7.9c-1,0-1.9-0.8-1.9-1.9s0.8-1.9,1.9-1.9h6.1v-32H5.7v32h6.1
	c0.5,0,1,0.2,1.3,0.5l6.7,6.8v-5.4c0-1,0.8-1.9,1.9-1.9l0,0h13.9c1,0,1.9,0.8,1.9,1.9S36.7,52,35.6,52h-12v8c0,0.8-0.5,1.4-1.2,1.7
	C22.2,61.8,22,61.8,21.7,61.8L21.7,61.8z"/>
<path class="st0" d="M21.7,101.5H1.9c-1,0-1.9-0.8-1.9-1.9l0,0V67.9c0-1,0.8-1.9,1.9-1.9l0,0h19.8c1,0,1.9,0.8,1.9,1.9l0,0v31.7
	C23.5,100.7,22.7,101.5,21.7,101.5L21.7,101.5z M3.7,97.8h16.1v-28H3.7V97.8z"/>
<path class="st0" d="M57.7,103.5H31.6c-0.2,0-0.4,0-0.6-0.1l-5.7-1.9h-3.7c-1,0.1-1.9-0.7-2-1.7s0.7-1.9,1.7-2c0.1,0,0.2,0,0.3,0h4
	c0.2,0,0.4,0,0.6,0.1l5.7,1.9h25.6c1,0.1,1.9-0.6,2-1.6c0,0,0,0,0-0.1s0-0.2,0-0.3v-0.2c0-0.7,0-1.4-2.2-1.4c-1,0-1.9-0.8-1.9-1.8
	s0.8-1.9,1.8-1.9h1.4c1.5-0.1,2.7-1.3,2.8-2.8c-0.1-1.2-1-2.1-2.2-2.2h-0.5c-1,0-1.8-0.9-1.8-1.9c0-0.9,0.7-1.7,1.7-1.8h0.1
	c0.2,0,0.5,0,0.7,0h2.5c0.8,0.1,1.6-0.5,1.6-1.3l0,0c0-0.1,0-0.2,0-0.4c0-0.1,0-0.2,0-0.3c0-1.2-0.5-3-1.8-3h-1.5
	c-1,0-1.9-0.8-1.9-1.9s0.8-1.9,1.9-1.9l0,0c1.4,0,2.6-1.1,2.6-2.5l0,0c0-1.3-0.4-2.8-3.4-2.8H41.5c-1,0-1.9-0.8-1.9-1.8
	c0-0.2,0-0.5,0.1-0.7l5.3-14v-3.9c0-0.7-0.3-1.3-0.8-1.7c-0.5-0.5-1.2-0.7-1.9-0.6c-1.3,0.1-2.3,1.1-2.4,2.4c0,0.2-0.1,0.5-0.2,0.7
	L39,51.8l-3.6,7.1c-0.1,0.1-0.1,0.2-0.2,0.3l-8,9.9c-0.3,0.4-0.9,0.7-1.4,0.7h-4c-1,0-1.9-0.8-1.9-1.9s0.8-1.9,1.9-1.9h3.1l7.4-9.1
	l3.5-6.9l0.7-1.3c0.4-3,2.8-5.2,5.8-5.4c3.4-0.2,6.4,2.4,6.7,5.8l0,0v0.1v4.4c0,0.2,0,0.4-0.1,0.7l-4.4,11.8h15.1
	c5.2,0,7.1,3.4,7.1,6.5c0,1.4-0.5,2.8-1.4,3.9c1.4,1.4,2.1,3.3,2.1,5.2c0,0.4,0,0.7,0,1.1c-0.2,1.8-1.2,3.3-2.8,4.2
	c0.5,0.8,0.7,1.8,0.8,2.7v0.2c-0.1,2-1,3.9-2.7,5.1c0.5,0.8,0.7,1.7,0.7,2.7c0,0.3,0,0.5,0,0.8C63,101.3,60.6,103.5,57.7,103.5z"/>
<rect x="11.9" y="91.7" class="st0" width="3.7" height="4"/>
<path class="st0" d="M71.3,73.7c-0.2,0-0.4,0-0.6-0.1c-0.7-0.3-1.2-1-1.2-1.8v-10h-18c-1,0-1.9-0.8-1.9-1.9s0.8-1.9,1.9-1.9h19.9
	c1,0,1.9,0.8,1.9,1.9l0,0v6.6l6.1-7.8c0.4-0.4,0.9-0.7,1.4-0.7h6.6V22.2h-26c-1,0-1.9-0.8-1.9-1.9c0-1,0.8-1.9,1.9-1.9l0,0h27.8
	c1,0,1.9,0.8,1.9,1.9l0,0V60c0,1-0.8,1.9-1.9,1.9l0,0h-7.5l-9,11.1C72.4,73.5,71.8,73.7,71.3,73.7z"/>
<rect x="19.7" y="30.4" class="st0" width="4" height="3.7"/>
<rect x="27.6" y="30.4" class="st0" width="4" height="3.7"/>
<rect x="35.6" y="30.4" class="st0" width="4" height="3.7"/>
<rect x="61.4" y="28.4" class="st0" width="21.8" height="3.7"/>
<rect x="61.4" y="38.3" class="st0" width="21.8" height="3.7"/>
<rect x="61.4" y="48.2" class="st0" width="21.8" height="3.7"/>
</svg>
