<?xml version="1.0" encoding="utf-8"?>
<!-- Generator: Adobe Illustrator 26.1.0, SVG Export Plug-In . SVG Version: 6.00 Build 0)  -->
<svg version="1.1" id="Capa_1" xmlns="http://www.w3.org/2000/svg" xmlns:xlink="http://www.w3.org/1999/xlink" x="0px" y="0px"
	 viewBox="0 0 397 135" style="enable-background:new 0 0 397 135;" xml:space="preserve">
<style type="text/css">
	.st0{fill:#69B8EB;}
	.st1{fill:#222220;}
	.st2{fill:#C9D45B;}
	.st3{fill:#DC924F;}
</style>
<g>
	<g>
		<path class="st0" d="M211.8,60.2c3.4,0,6.6,0.7,9.5,2c3,1.2,5.6,3,7.8,5.2c2.2,2.2,4,4.7,5.2,7.7c1.3,2.9,2,6,2,9.4v24.4h-9.7
			V84.5c0-2-0.4-3.9-1.2-5.6c-0.7-1.8-1.8-3.4-3.2-4.7c-1.3-1.4-2.9-2.4-4.7-3.2c-1.8-0.8-3.7-1.2-5.8-1.2c-2,0-3.9,0.4-5.8,1.2
			c-1.7,0.7-3.3,1.8-4.7,3.2c-1.3,1.3-2.4,2.9-3.1,4.7c-0.7,1.7-1.1,3.6-1.1,5.6v24.4h-9.7V84.5c0-2-0.4-3.9-1.2-5.6
			c-0.7-1.8-1.8-3.4-3.2-4.7c-1.3-1.4-2.9-2.4-4.7-3.2c-1.8-0.8-3.7-1.2-5.8-1.2c-2,0-3.9,0.4-5.8,1.2c-1.7,0.7-3.3,1.8-4.7,3.2
			c-1.3,1.3-2.4,2.9-3.2,4.7c-0.7,1.7-1.1,3.6-1.1,5.6v24.4h-9.7V84.5c0-3.4,0.6-6.6,1.8-9.4c1.3-3,3-5.5,5.2-7.7
			c2.2-2.2,4.9-4,7.8-5.2c3-1.3,6.1-2,9.5-2c4.1,0,7.7,0.9,11.1,2.7c3.4,1.7,6.2,4.1,8.5,7.2c2.2-3,5.1-5.4,8.5-7.2
			C204.1,61.1,207.8,60.2,211.8,60.2"/>
	</g>
	<rect x="242" y="60.2" class="st0" width="9.6" height="48.8"/>
	<g>
		<path class="st1" d="M303.4,59.9L278,108.8l-25.3-48.9h10.9c1,2,2.2,4.2,3.5,6.7c1.3,2.5,2.6,5,3.9,7.6c1.3,2.5,2.6,5,3.8,7.4
			c1.3,2.4,2.4,4.5,3.3,6.2c1.1-2.1,2.3-4.5,3.7-7.2c1.4-2.8,2.9-5.5,4.2-8.1c1.4-2.7,2.6-5.1,3.8-7.4c1.2-2.3,2.1-4.1,2.7-5.2
			H303.4z"/>
		<path class="st1" d="M298.8,84.7c0-3.4,0.6-6.6,1.8-9.4c1.3-3,3-5.5,5.2-7.7c2.2-2.2,4.9-4,7.8-5.2c3-1.3,6.1-2,9.5-2
			c3.4,0,6.6,0.7,9.4,2c3,1.2,5.6,3,7.8,5.2c2.2,2.2,4,4.7,5.2,7.7c1.3,2.9,2,6,2,9.4c0,3.3-0.7,6.5-2,9.5c-1.2,3-3,5.6-5.2,7.8
			c-2.2,2.2-4.9,4-7.8,5.3c-2.9,1.2-6,1.8-9.4,1.8c-3.3,0-6.5-0.6-9.5-1.8c-3-1.3-5.6-3.1-7.8-5.3c-2.2-2.2-3.9-4.9-5.2-7.8
			C299.4,91.2,298.8,88,298.8,84.7 M308.3,84.7c0,2,0.4,3.9,1.1,5.8c0.8,1.8,1.8,3.4,3.2,4.8c1.4,1.3,3,2.4,4.8,3.2
			c1.8,0.7,3.7,1.1,5.8,1.1c2,0,3.9-0.4,5.8-1.1c1.8-0.8,3.4-1.8,4.7-3.2c1.4-1.4,2.4-3,3.2-4.8c0.8-1.8,1.2-3.7,1.2-5.8
			c0-2-0.4-3.9-1.2-5.6c-0.7-1.8-1.8-3.4-3.2-4.7c-1.3-1.4-2.9-2.4-4.7-3.2c-1.8-0.8-3.7-1.2-5.8-1.2c-2,0-3.9,0.4-5.8,1.2
			c-1.8,0.7-3.4,1.8-4.8,3.2c-1.3,1.3-2.4,2.9-3.2,4.7C308.7,80.8,308.3,82.7,308.3,84.7"/>
		<path class="st1" d="M394.2,60.3c-4.1,5.5-7.9,10.8-11.4,15.9c-1.5,2.2-3.1,4.4-4.7,6.6c-1.6,2.2-3.1,4.3-4.6,6.4
			c-1.4,2-2.8,3.9-4.1,5.8c-1.3,1.7-2.4,3.2-3.3,4.5h29v9.7h-47.9c4-5.5,7.8-10.8,11.4-15.9c1.5-2.2,3.1-4.3,4.7-6.5
			c1.7-2.2,3.2-4.4,4.7-6.4c1.4-2.1,2.8-4,4.1-5.8c1.3-1.8,2.4-3.3,3.3-4.6h-29v-9.7H394.2z"/>
		<path class="st0" d="M125.8,63.6c0-9-7.3-16.3-16.3-16.3H89.5H66.9H50.6V89v17.2c0,9,7.3,16.3,16.3,16.3h22.5
			C95.9,129.8,110,135,110,135c-5-4.4-7.9-8.7-9.6-12.5h9.1h16.3v-16.3v-17V63.6z"/>
		<path class="st2" d="M61.4,7.7C61.4,3.4,58,0,53.8,0h-9.4H33.7H26v19.6v8.1c0,4.2,3.4,7.7,7.7,7.7h10.6c3.1,3.5,9.7,5.9,9.7,5.9
			c-2.3-2.1-3.7-4.1-4.5-5.9h4.3h7.7v-7.7v-8V7.7z"/>
		<path class="st3" d="M0,56.2C0,51.1,4.1,47,9.3,47h11.4h12.9h9.3v23.8v9.8c0,5.1-4.1,9.3-9.3,9.3H20.8C17,94,9,97,9,97
			c2.8-2.5,4.5-5,5.5-7.1H9.3H0v-9.3v-9.7V56.2z"/>
	</g>
	<polygon class="st1" points="148.8,118.1 150.6,118.1 150.6,129.5 157.2,129.5 157.2,131.1 148.8,131.1 	"/>
	<g>
		<path class="st1" d="M160.4,129.6c0.3,0.3,0.7,0.4,1.2,0.4c0.6,0,1.1-0.1,1.6-0.4c0.9-0.4,1.3-1.1,1.3-2.1v-1.3
			c-0.2,0.1-0.4,0.2-0.8,0.3c-0.3,0.1-0.6,0.1-0.9,0.2l-1,0.1c-0.6,0.1-1,0.2-1.3,0.4c-0.5,0.3-0.7,0.7-0.7,1.3
			C159.9,129,160,129.4,160.4,129.6 M163.7,125.3c0.4,0,0.6-0.2,0.7-0.5c0.1-0.1,0.1-0.3,0.1-0.6c0-0.5-0.2-0.9-0.6-1.2
			c-0.4-0.2-0.9-0.4-1.7-0.4c-0.8,0-1.4,0.2-1.8,0.7c-0.2,0.2-0.3,0.6-0.4,1.1h-1.5c0-1.2,0.4-2,1.1-2.4c0.7-0.5,1.6-0.7,2.5-0.7
			c1.1,0,2,0.2,2.7,0.6c0.7,0.4,1,1.1,1,2v5.5c0,0.2,0,0.3,0.1,0.4c0.1,0.1,0.2,0.2,0.4,0.2c0.1,0,0.1,0,0.2,0c0.1,0,0.2,0,0.3,0
			v1.2c-0.2,0.1-0.4,0.1-0.6,0.1c-0.1,0-0.3,0-0.5,0c-0.5,0-0.9-0.2-1.2-0.6c-0.1-0.2-0.2-0.5-0.3-0.9c-0.3,0.4-0.8,0.8-1.4,1.1
			c-0.6,0.3-1.3,0.5-2,0.5c-0.9,0-1.6-0.3-2.2-0.8c-0.6-0.5-0.8-1.2-0.8-2c0-0.9,0.3-1.6,0.8-2c0.5-0.5,1.3-0.8,2.2-0.9L163.7,125.3
			z"/>
		<path class="st1" d="M173.7,121.6h1.5v1.6c0.1-0.3,0.4-0.7,0.9-1.2c0.5-0.5,1-0.7,1.7-0.7c0,0,0.1,0,0.2,0c0.1,0,0.2,0,0.4,0v1.7
			c-0.1,0-0.2,0-0.3,0c-0.1,0-0.2,0-0.3,0c-0.8,0-1.4,0.3-1.8,0.8c-0.4,0.5-0.6,1.1-0.6,1.8v5.5h-1.6V121.6z"/>
		<path class="st1" d="M185.5,121.8c0.6,0.3,1.1,0.7,1.4,1.2c0.3,0.5,0.5,1,0.6,1.7c0.1,0.4,0.1,1.1,0.1,2.1h-6.9
			c0,1,0.3,1.7,0.7,2.3c0.4,0.6,1.1,0.9,2,0.9c0.8,0,1.5-0.3,2-0.8c0.3-0.3,0.5-0.7,0.6-1.1h1.6c0,0.3-0.2,0.7-0.4,1.2
			c-0.2,0.4-0.5,0.8-0.8,1c-0.5,0.5-1.1,0.8-1.8,1c-0.4,0.1-0.8,0.1-1.3,0.1c-1.2,0-2.2-0.4-3-1.3c-0.8-0.9-1.2-2.1-1.2-3.6
			c0-1.5,0.4-2.8,1.2-3.7c0.8-1,1.9-1.4,3.2-1.4C184.3,121.4,184.9,121.5,185.5,121.8 M186.1,125.6c-0.1-0.7-0.2-1.2-0.5-1.7
			c-0.4-0.8-1.2-1.2-2.2-1.2c-0.7,0-1.3,0.3-1.8,0.8c-0.5,0.5-0.8,1.2-0.8,2H186.1z"/>
		<path class="st1" d="M191.3,129c0.4,0.7,1.1,1,2.1,1c0.7,0,1.3-0.3,1.8-0.9c0.5-0.6,0.7-1.5,0.7-2.7c0-1.2-0.2-2.1-0.7-2.7
			c-0.5-0.6-1.1-0.9-1.8-0.9c-0.8,0-1.5,0.3-2,0.9c-0.5,0.6-0.7,1.5-0.7,2.7C190.7,127.4,190.9,128.3,191.3,129 M194.9,121.9
			c0.3,0.2,0.6,0.5,1,0.9V118h1.5v13h-1.4v-1.3c-0.4,0.6-0.8,1-1.3,1.3c-0.5,0.3-1.1,0.4-1.7,0.4c-1.1,0-2-0.4-2.7-1.3
			c-0.8-0.9-1.2-2.1-1.2-3.5c0-1.4,0.3-2.6,1.1-3.6c0.7-1,1.7-1.5,3-1.5C193.8,121.4,194.4,121.6,194.9,121.9"/>
		<path class="st1" d="M206.3,129c0.4,0.7,1.1,1,2.1,1c0.7,0,1.3-0.3,1.8-0.9c0.5-0.6,0.7-1.5,0.7-2.7c0-1.2-0.2-2.1-0.7-2.7
			c-0.5-0.6-1.1-0.9-1.8-0.9c-0.8,0-1.5,0.3-2,0.9c-0.5,0.6-0.7,1.5-0.7,2.7C205.7,127.4,205.9,128.3,206.3,129 M209.9,121.9
			c0.3,0.2,0.6,0.5,1,0.9V118h1.5v13h-1.4v-1.3c-0.4,0.6-0.8,1-1.3,1.3c-0.5,0.3-1.1,0.4-1.7,0.4c-1.1,0-2-0.4-2.7-1.3
			c-0.8-0.9-1.2-2.1-1.2-3.5c0-1.4,0.3-2.6,1.1-3.6c0.7-1,1.7-1.5,3-1.5C208.8,121.4,209.4,121.6,209.9,121.9"/>
		<path class="st1" d="M220.6,121.8c0.6,0.3,1.1,0.7,1.4,1.2c0.3,0.5,0.5,1,0.6,1.7c0.1,0.4,0.1,1.1,0.1,2.1h-6.9
			c0,1,0.3,1.7,0.7,2.3c0.4,0.6,1.1,0.9,2,0.9c0.8,0,1.5-0.3,2-0.8c0.3-0.3,0.5-0.7,0.6-1.1h1.6c0,0.3-0.2,0.7-0.4,1.2
			c-0.2,0.4-0.5,0.8-0.8,1c-0.5,0.5-1.1,0.8-1.8,1c-0.4,0.1-0.8,0.1-1.3,0.1c-1.2,0-2.2-0.4-3-1.3c-0.8-0.9-1.2-2.1-1.2-3.6
			c0-1.5,0.4-2.8,1.2-3.7c0.8-1,1.9-1.4,3.2-1.4C219.3,121.4,220,121.5,220.6,121.8 M221.2,125.6c-0.1-0.7-0.2-1.2-0.5-1.7
			c-0.4-0.8-1.2-1.2-2.2-1.2c-0.7,0-1.3,0.3-1.8,0.8c-0.5,0.5-0.8,1.2-0.8,2H221.2z"/>
		<path class="st0" d="M232.5,120.3v8.5h2.5c1.3,0,2.2-0.6,2.7-1.9c0.3-0.7,0.4-1.5,0.4-2.5c0-1.3-0.2-2.3-0.6-3.1
			c-0.4-0.7-1.2-1.1-2.5-1.1H232.5z M237.5,118.3c0.9,0.3,1.7,0.9,2.2,1.7c0.5,0.6,0.8,1.4,0.9,2.1c0.2,0.8,0.2,1.5,0.2,2.2
			c0,1.7-0.3,3.2-1,4.4c-0.9,1.6-2.4,2.4-4.4,2.4h-5.6v-13h5.6C236.3,118,237,118.1,237.5,118.3"/>
	</g>
	<path class="st0" d="M245.3,120.3h-2.6v-2.3h2.6V120.3z M242.8,121.4h2.6v9.6h-2.6V121.4z"/>
	<g>
		<path class="st0" d="M253,126.4c-0.2,0.1-0.3,0.2-0.5,0.2c-0.2,0.1-0.4,0.1-0.7,0.2l-0.6,0.1c-0.5,0.1-0.9,0.2-1.1,0.3
			c-0.4,0.2-0.6,0.6-0.6,1.1c0,0.4,0.1,0.7,0.4,0.9c0.2,0.2,0.5,0.3,0.9,0.3c0.5,0,1-0.2,1.5-0.5c0.5-0.3,0.7-0.9,0.7-1.7V126.4z
			 M251.5,125.2c0.5-0.1,0.8-0.1,1-0.2c0.4-0.2,0.5-0.4,0.5-0.7c0-0.4-0.1-0.7-0.4-0.8c-0.3-0.2-0.7-0.2-1.2-0.2
			c-0.6,0-1,0.1-1.3,0.4c-0.2,0.2-0.3,0.5-0.4,0.9h-2.4c0.1-0.8,0.3-1.5,0.7-2.1c0.7-0.8,1.8-1.3,3.4-1.3c1.1,0,2,0.2,2.8,0.6
			c0.8,0.4,1.2,1.2,1.2,2.4v4.4c0,0.3,0,0.7,0,1.1c0,0.3,0.1,0.6,0.2,0.7c0.1,0.1,0.2,0.2,0.4,0.3v0.4h-2.7
			c-0.1-0.2-0.1-0.4-0.2-0.5c0-0.2-0.1-0.4-0.1-0.6c-0.3,0.4-0.8,0.7-1.2,1c-0.5,0.3-1.2,0.5-1.8,0.5c-0.9,0-1.6-0.2-2.2-0.7
			c-0.6-0.5-0.8-1.2-0.8-2.1c0-1.2,0.5-2,1.4-2.6c0.5-0.3,1.2-0.5,2.2-0.6L251.5,125.2z"/>
		<path class="st0" d="M263.1,121.2c0,0,0.1,0,0.2,0v2.6c-0.2,0-0.3,0-0.4,0c-0.1,0-0.2,0-0.3,0c-1,0-1.7,0.3-2,1
			c-0.2,0.4-0.3,0.9-0.3,1.7v4.6h-2.5v-9.6h2.4v1.7c0.4-0.6,0.7-1.1,1-1.3c0.5-0.4,1.1-0.6,1.8-0.6C263,121.2,263,121.2,263.1,121.2
			"/>
	</g>
	<path class="st0" d="M267.3,120.3h-2.6v-2.3h2.6V120.3z M264.7,121.4h2.6v9.6h-2.6V121.4z"/>
	<g>
		<path class="st0" d="M275.7,128.5c0.4-0.5,0.6-1.3,0.6-2.2c0-1-0.2-1.7-0.6-2.2c-0.4-0.5-1-0.8-1.7-0.8c-0.7,0-1.3,0.3-1.7,0.8
			c-0.4,0.5-0.6,1.3-0.6,2.2c0,1,0.2,1.7,0.6,2.2c0.4,0.5,1,0.8,1.7,0.8C274.8,129.3,275.3,129,275.7,128.5 M277.7,129.9
			c-0.8,1-2.1,1.5-3.7,1.5s-2.9-0.5-3.7-1.5c-0.8-1-1.2-2.2-1.2-3.6c0-1.4,0.4-2.6,1.2-3.6c0.8-1,2.1-1.5,3.7-1.5s2.9,0.5,3.7,1.5
			c0.8,1,1.2,2.2,1.2,3.6C279,127.7,278.5,128.9,277.7,129.9"/>
		<path class="st0" d="M282.7,128c0.1,0.4,0.2,0.8,0.3,1c0.3,0.3,0.9,0.5,1.7,0.5c0.5,0,0.9-0.1,1.2-0.2c0.3-0.1,0.4-0.4,0.4-0.7
			c0-0.3-0.1-0.5-0.4-0.6c-0.2-0.1-1.1-0.4-2.6-0.8c-1.1-0.3-1.9-0.6-2.3-1c-0.4-0.4-0.7-1-0.7-1.7c0-0.9,0.3-1.7,1-2.3
			c0.7-0.6,1.7-1,3-1c1.2,0,2.2,0.2,2.9,0.7c0.8,0.5,1.2,1.3,1.3,2.5h-2.5c0-0.3-0.1-0.6-0.3-0.8c-0.3-0.3-0.8-0.5-1.4-0.5
			c-0.5,0-0.9,0.1-1.2,0.3c-0.2,0.2-0.3,0.4-0.3,0.6c0,0.3,0.1,0.5,0.4,0.6c0.2,0.1,1.1,0.4,2.6,0.7c1,0.2,1.8,0.6,2.3,1.1
			c0.5,0.5,0.7,1.1,0.7,1.8c0,1-0.4,1.7-1.1,2.3c-0.7,0.6-1.8,0.9-3.3,0.9c-1.5,0-2.6-0.3-3.4-1c-0.7-0.6-1.1-1.5-1.1-2.5H282.7z"/>
		<path class="st0" d="M297.2,119.4c1.1-1.1,2.4-1.6,4.1-1.6c2.2,0,3.8,0.7,4.8,2.2c0.6,0.8,0.9,1.6,0.9,2.4h-2.7
			c-0.2-0.6-0.4-1.1-0.7-1.4c-0.5-0.6-1.2-0.8-2.2-0.8c-1,0-1.8,0.4-2.3,1.2c-0.6,0.8-0.9,1.9-0.9,3.4c0,1.5,0.3,2.6,0.9,3.3
			c0.6,0.7,1.4,1.1,2.3,1.1c1,0,1.7-0.3,2.2-0.9c0.3-0.3,0.5-0.8,0.7-1.5h2.7c-0.2,1.4-0.8,2.6-1.8,3.5c-1,0.9-2.2,1.3-3.7,1.3
			c-1.9,0-3.4-0.6-4.4-1.8c-1.1-1.2-1.6-2.9-1.6-5C295.3,122.4,296,120.6,297.2,119.4"/>
	</g>
	<path class="st0" d="M311.3,120.3h-2.6v-2.3h2.6V120.3z M308.8,121.4h2.6v9.6h-2.6V121.4z"/>
	<g>
		<path class="st0" d="M316.2,121.4v5.8c0,0.5,0.1,1,0.2,1.2c0.2,0.5,0.7,0.7,1.4,0.7c0.9,0,1.5-0.3,1.8-1c0.2-0.4,0.2-0.9,0.2-1.5
			v-5.2h2.6v9.6h-2.5v-1.4c0,0-0.1,0.1-0.2,0.3c-0.1,0.1-0.2,0.3-0.3,0.4c-0.4,0.4-0.8,0.6-1.2,0.7c-0.4,0.1-0.8,0.2-1.3,0.2
			c-1.4,0-2.4-0.5-2.9-1.5c-0.3-0.6-0.4-1.4-0.4-2.5v-5.8H316.2z"/>
		<path class="st0" d="M329.8,121.6c0.5,0.3,0.8,0.6,1.1,1.1V118h2.6v13h-2.5v-1.3c-0.4,0.6-0.8,1-1.2,1.2c-0.5,0.3-1,0.4-1.7,0.4
			c-1.1,0-2.1-0.5-2.8-1.4c-0.8-0.9-1.2-2.1-1.2-3.5c0-1.6,0.4-2.9,1.1-3.9c0.8-0.9,1.8-1.4,3-1.4
			C328.9,121.2,329.4,121.3,329.8,121.6 M330.5,128.4c0.4-0.5,0.6-1.2,0.6-2.1c0-1.2-0.3-2-0.9-2.5c-0.4-0.3-0.8-0.5-1.3-0.5
			c-0.7,0-1.3,0.3-1.6,0.8c-0.3,0.6-0.5,1.2-0.5,2.1c0,0.9,0.2,1.6,0.5,2.1c0.4,0.5,0.9,0.8,1.6,0.8
			C329.5,129.2,330.1,129,330.5,128.4"/>
		<path class="st0" d="M341.1,126.4c-0.2,0.1-0.3,0.2-0.5,0.2c-0.2,0.1-0.4,0.1-0.7,0.2l-0.6,0.1c-0.5,0.1-0.9,0.2-1.1,0.3
			c-0.4,0.2-0.6,0.6-0.6,1.1c0,0.4,0.1,0.7,0.4,0.9c0.2,0.2,0.5,0.3,0.9,0.3c0.5,0,1-0.2,1.5-0.5c0.5-0.3,0.7-0.9,0.7-1.7V126.4z
			 M339.5,125.2c0.5-0.1,0.8-0.1,1-0.2c0.4-0.2,0.5-0.4,0.5-0.7c0-0.4-0.1-0.7-0.4-0.8c-0.3-0.2-0.7-0.2-1.2-0.2
			c-0.6,0-1,0.1-1.3,0.4c-0.2,0.2-0.3,0.5-0.4,0.9h-2.4c0.1-0.8,0.3-1.5,0.7-2.1c0.7-0.8,1.8-1.3,3.4-1.3c1.1,0,2,0.2,2.8,0.6
			c0.8,0.4,1.2,1.2,1.2,2.4v4.4c0,0.3,0,0.7,0,1.1c0,0.3,0.1,0.6,0.2,0.7c0.1,0.1,0.2,0.2,0.4,0.3v0.4h-2.7
			c-0.1-0.2-0.1-0.4-0.2-0.5c0-0.2-0.1-0.4-0.1-0.6c-0.3,0.4-0.8,0.7-1.2,1c-0.5,0.3-1.2,0.5-1.8,0.5c-0.9,0-1.6-0.2-2.2-0.7
			c-0.6-0.5-0.8-1.2-0.8-2.1c0-1.2,0.5-2,1.4-2.6c0.5-0.3,1.2-0.5,2.2-0.6L339.5,125.2z"/>
		<path class="st0" d="M350.9,121.6c0.5,0.3,0.8,0.6,1.1,1.1V118h2.6v13h-2.5v-1.3c-0.4,0.6-0.8,1-1.2,1.2c-0.5,0.3-1,0.4-1.7,0.4
			c-1.1,0-2.1-0.5-2.9-1.4c-0.8-0.9-1.2-2.1-1.2-3.5c0-1.6,0.4-2.9,1.1-3.9c0.8-0.9,1.8-1.4,3-1.4
			C349.9,121.2,350.4,121.3,350.9,121.6 M351.5,128.4c0.4-0.5,0.6-1.2,0.6-2.1c0-1.2-0.3-2-0.9-2.5c-0.4-0.3-0.8-0.5-1.3-0.5
			c-0.7,0-1.3,0.3-1.6,0.8c-0.3,0.6-0.5,1.2-0.5,2.1c0,0.9,0.2,1.6,0.5,2.1c0.4,0.5,0.9,0.8,1.6,0.8S351.1,129,351.5,128.4"/>
		<path class="st0" d="M362.1,126.4c-0.2,0.1-0.3,0.2-0.5,0.2c-0.2,0.1-0.4,0.1-0.7,0.2l-0.6,0.1c-0.5,0.1-0.9,0.2-1.1,0.3
			c-0.4,0.2-0.6,0.6-0.6,1.1c0,0.4,0.1,0.7,0.4,0.9c0.2,0.2,0.5,0.3,0.9,0.3c0.5,0,1-0.2,1.5-0.5c0.5-0.3,0.7-0.9,0.7-1.7V126.4z
			 M360.6,125.2c0.5-0.1,0.8-0.1,1-0.2c0.4-0.2,0.5-0.4,0.5-0.7c0-0.4-0.1-0.7-0.4-0.8c-0.3-0.2-0.7-0.2-1.2-0.2
			c-0.6,0-1,0.1-1.3,0.4c-0.2,0.2-0.3,0.5-0.4,0.9h-2.4c0.1-0.8,0.3-1.5,0.7-2.1c0.7-0.8,1.8-1.3,3.4-1.3c1.1,0,2,0.2,2.8,0.6
			c0.8,0.4,1.2,1.2,1.2,2.4v4.4c0,0.3,0,0.7,0,1.1c0,0.3,0.1,0.6,0.2,0.7c0.1,0.1,0.2,0.2,0.4,0.3v0.4h-2.7
			c-0.1-0.2-0.1-0.4-0.2-0.5c0-0.2-0.1-0.4-0.1-0.6c-0.3,0.4-0.8,0.7-1.2,1c-0.5,0.3-1.2,0.5-1.8,0.5c-0.9,0-1.6-0.2-2.2-0.7
			c-0.6-0.5-0.8-1.2-0.8-2.1c0-1.2,0.5-2,1.4-2.6c0.5-0.3,1.2-0.5,2.2-0.6L360.6,125.2z"/>
		<path class="st0" d="M374.6,122c0.6,0.5,1,1.4,1,2.6v6.5H373v-5.9c0-0.5-0.1-0.9-0.2-1.2c-0.2-0.5-0.7-0.7-1.4-0.7
			c-0.9,0-1.4,0.4-1.8,1.1c-0.2,0.4-0.2,0.9-0.2,1.5v5.2h-2.5v-9.6h2.4v1.4c0.3-0.5,0.6-0.9,0.9-1.1c0.5-0.4,1.2-0.6,2-0.6
			C373.1,121.2,374,121.4,374.6,122"/>
		<path class="st0" d="M383.8,128.5c0.4-0.5,0.6-1.3,0.6-2.2c0-1-0.2-1.7-0.6-2.2c-0.4-0.5-1-0.8-1.7-0.8c-0.7,0-1.3,0.3-1.7,0.8
			c-0.4,0.5-0.6,1.3-0.6,2.2c0,1,0.2,1.7,0.6,2.2c0.4,0.5,1,0.8,1.7,0.8C382.9,129.3,383.4,129,383.8,128.5 M385.9,129.9
			c-0.8,1-2.1,1.5-3.7,1.5c-1.7,0-2.9-0.5-3.7-1.5c-0.8-1-1.2-2.2-1.2-3.6c0-1.4,0.4-2.6,1.2-3.6c0.8-1,2.1-1.5,3.7-1.5
			c1.7,0,2.9,0.5,3.7,1.5c0.8,1,1.2,2.2,1.2,3.6C387.1,127.7,386.7,128.9,385.9,129.9"/>
		<path class="st0" d="M390.8,128c0.1,0.4,0.2,0.8,0.3,1c0.3,0.3,0.9,0.5,1.7,0.5c0.5,0,0.9-0.1,1.2-0.2c0.3-0.1,0.4-0.4,0.4-0.7
			c0-0.3-0.1-0.5-0.4-0.6c-0.2-0.1-1.1-0.4-2.6-0.8c-1.1-0.3-1.9-0.6-2.3-1c-0.4-0.4-0.7-1-0.7-1.7c0-0.9,0.3-1.7,1-2.3
			c0.7-0.6,1.7-1,3-1c1.2,0,2.2,0.2,2.9,0.7c0.8,0.5,1.2,1.3,1.3,2.5h-2.5c0-0.3-0.1-0.6-0.3-0.8c-0.3-0.3-0.8-0.5-1.4-0.5
			c-0.5,0-0.9,0.1-1.2,0.3c-0.2,0.2-0.3,0.4-0.3,0.6c0,0.3,0.1,0.5,0.4,0.6c0.2,0.1,1.1,0.4,2.6,0.7c1,0.2,1.8,0.6,2.3,1.1
			c0.5,0.5,0.7,1.1,0.7,1.8c0,1-0.4,1.7-1.1,2.3c-0.7,0.6-1.8,0.9-3.3,0.9c-1.5,0-2.6-0.3-3.4-1c-0.7-0.6-1.1-1.5-1.1-2.5H390.8z"/>
	</g>
</g>
</svg>
