<?xml version="1.0" encoding="utf-8"?>
<!-- Generator: Adobe Illustrator 26.1.0, SVG Export Plug-In . SVG Version: 6.00 Build 0)  -->
<svg version="1.1" id="Capa_1" xmlns="http://www.w3.org/2000/svg" xmlns:xlink="http://www.w3.org/1999/xlink" x="0px" y="0px"
	 viewBox="0 0 413.1 413.1" style="enable-background:new 0 0 413.1 413.1;" xml:space="preserve">
<style type="text/css">
	.st0{fill:#FFFFFF;}
	.st1{fill-rule:evenodd;clip-rule:evenodd;fill:#69B8EB;}
	.st2{fill-rule:evenodd;clip-rule:evenodd;fill:#222220;}
	.st3{fill:#69B8EB;}
	.st4{fill:#C9D45B;}
	.st5{fill:#DC924F;}
</style>
<g>
	<circle class="st0" cx="206.5" cy="206.5" r="206.5"/>
	<g>
		<path class="st1" d="M151.3,264.1c3.1,0,6,0.6,8.6,1.8c2.7,1.1,5.1,2.7,7.1,4.7c2,2,3.6,4.3,4.7,7c1.2,2.6,1.8,5.5,1.8,8.6v22.2
			h-8.8v-22.2c0-1.8-0.4-3.6-1.1-5.1c-0.7-1.6-1.6-3.1-2.9-4.2c-1.2-1.3-2.6-2.2-4.2-2.9c-1.6-0.7-3.4-1.1-5.2-1.1
			c-1.8,0-3.6,0.4-5.2,1.1c-1.6,0.7-3,1.6-4.2,2.9c-1.2,1.2-2.1,2.6-2.9,4.2c-0.7,1.6-1,3.3-1,5.1v22.2h-8.8v-22.2
			c0-1.8-0.4-3.6-1.1-5.1c-0.7-1.6-1.6-3.1-2.9-4.2c-1.2-1.3-2.6-2.2-4.2-2.9c-1.6-0.7-3.4-1.1-5.2-1.1c-1.8,0-3.6,0.4-5.2,1.1
			c-1.6,0.7-3,1.6-4.2,2.9c-1.2,1.2-2.1,2.6-2.9,4.2c-0.7,1.6-1,3.3-1,5.1v22.2h-8.8v-22.2c0-3.1,0.6-6,1.7-8.6c1.2-2.7,2.8-5,4.7-7
			c2-2,4.4-3.6,7.1-4.7c2.7-1.2,5.6-1.8,8.6-1.8c3.7,0,7,0.8,10.1,2.5c3.1,1.6,5.7,3.8,7.7,6.5c2-2.8,4.6-4.9,7.7-6.5
			C144.3,264.9,147.7,264.1,151.3,264.1z"/>
		<rect x="178.8" y="264.1" class="st1" width="8.7" height="44.4"/>
		<path class="st2" d="M234.7,263.9l-23.1,44.5l-23-44.5h9.9c0.9,1.8,2,3.8,3.2,6.1c1.2,2.2,2.4,4.5,3.6,6.9
			c1.2,2.3,2.3,4.5,3.5,6.7c1.2,2.2,2.2,4.1,3,5.6c1-1.9,2.1-4.1,3.4-6.5c1.3-2.5,2.6-5,3.9-7.4c1.2-2.4,2.4-4.7,3.5-6.7
			c1.1-2.1,1.9-3.7,2.5-4.7H234.7z"/>
		<path class="st2" d="M239.1,286.4c0,1.8,0.3,3.6,1,5.2c0.7,1.6,1.7,3.1,2.9,4.3c1.3,1.2,2.7,2.1,4.3,2.9c1.6,0.7,3.4,1,5.2,1
			c1.8,0,3.6-0.3,5.2-1c1.6-0.7,3.1-1.7,4.2-2.9c1.3-1.3,2.2-2.7,2.9-4.3c0.7-1.6,1.1-3.4,1.1-5.2c0-1.8-0.4-3.6-1.1-5.1
			c-0.7-1.6-1.6-3.1-2.9-4.3c-1.2-1.3-2.6-2.2-4.2-2.9c-1.6-0.7-3.4-1.1-5.2-1.1c-1.8,0-3.6,0.4-5.2,1.1c-1.6,0.7-3.1,1.6-4.3,2.9
			c-1.2,1.2-2.1,2.6-2.9,4.3C239.5,282.9,239.1,284.6,239.1,286.4z M230.4,286.4c0-3.1,0.6-6,1.7-8.6c1.2-2.7,2.8-5,4.7-7
			c2-2,4.4-3.6,7.1-4.7c2.7-1.2,5.6-1.8,8.6-1.8c3.1,0,6,0.6,8.6,1.8c2.7,1.1,5.1,2.7,7.1,4.7c2,2,3.6,4.3,4.7,7
			c1.2,2.6,1.8,5.5,1.8,8.6c0,3-0.6,5.9-1.8,8.6c-1.1,2.7-2.7,5.1-4.7,7.1c-2,2-4.4,3.7-7.1,4.8c-2.6,1.1-5.5,1.7-8.6,1.7
			c-3,0-5.9-0.6-8.6-1.7c-2.7-1.2-5.1-2.8-7.1-4.8c-2-2-3.6-4.4-4.7-7.1C231,292.3,230.4,289.5,230.4,286.4z"/>
		<path class="st2" d="M317.3,264.2c-3.7,5-7.1,9.8-10.4,14.4c-1.4,2-2.8,4-4.3,6c-1.4,2-2.8,3.9-4.1,5.8c-1.3,1.8-2.6,3.6-3.8,5.2
			c-1.2,1.6-2.2,2.9-3,4.1h26.4v8.8h-43.6c3.6-5,7.1-9.8,10.4-14.4c1.4-2,2.8-4,4.3-5.9c1.5-2,2.9-4,4.2-5.8
			c1.3-1.9,2.6-3.7,3.8-5.2c1.2-1.6,2.2-3,3-4.1h-26.4v-8.8H317.3z"/>
		<path class="st3" d="M189.6,162.1c0-10.7,8.6-19.3,19.3-19.3h23.8h26.9h19.3v49.5v20.4c0,10.7-8.6,19.3-19.3,19.3h-26.7
			c-7.8,8.7-24.5,14.8-24.5,14.8c5.9-5.2,9.3-10.4,11.4-14.8h-10.8h-19.3v-19.3v-20.2V162.1z"/>
		<path class="st4" d="M202.5,93.6c0-5-4.1-9.1-9.1-9.1h-11.2h-12.6h-9.1v23.3v9.6c0,5,4.1,9.1,9.1,9.1h12.6c3.7,4.1,11.5,7,11.5,7
			c-2.8-2.4-4.4-4.9-5.4-7h5.1h9.1v-9.1V108V93.6z"/>
		<path class="st5" d="M180.4,151.3c0-6.1-4.9-11-11-11h-13.6h-15.3h-11v28.2v11.6c0,6.1,4.9,11,11,11h15.2c4.5,5,14,8.4,14,8.4
			c-3.4-3-5.3-5.9-6.5-8.4h6.2h11v-11v-11.5V151.3z"/>
		<polygon class="st2" points="94.1,316.4 95.7,316.4 95.7,326.8 101.6,326.8 101.6,328.2 94.1,328.2 		"/>
		<path class="st2" d="M107.6,323c0.3,0,0.6-0.2,0.7-0.4c0.1-0.1,0.1-0.3,0.1-0.5c0-0.5-0.2-0.8-0.5-1.1c-0.3-0.2-0.8-0.3-1.5-0.3
			c-0.8,0-1.3,0.2-1.6,0.6c-0.2,0.2-0.3,0.6-0.3,1H103c0-1.1,0.4-1.8,1-2.2c0.7-0.4,1.4-0.6,2.3-0.6c1,0,1.8,0.2,2.5,0.6
			c0.6,0.4,0.9,1,0.9,1.8v4.9c0,0.2,0,0.3,0.1,0.4c0.1,0.1,0.2,0.1,0.4,0.1c0.1,0,0.1,0,0.2,0c0.1,0,0.2,0,0.3,0v1.1
			c-0.2,0.1-0.4,0.1-0.5,0.1c-0.1,0-0.3,0-0.5,0c-0.5,0-0.9-0.2-1.1-0.5c-0.1-0.2-0.2-0.4-0.2-0.8c-0.3,0.4-0.7,0.7-1.3,1
			c-0.5,0.3-1.2,0.4-1.8,0.4c-0.8,0-1.4-0.2-1.9-0.7c-0.5-0.5-0.8-1.1-0.8-1.8c0-0.8,0.2-1.4,0.7-1.8c0.5-0.4,1.1-0.7,1.9-0.8
			L107.6,323z M104.5,326.9c0.3,0.2,0.7,0.4,1.1,0.4c0.5,0,1-0.1,1.5-0.3c0.8-0.4,1.2-1,1.2-1.9v-1.2c-0.2,0.1-0.4,0.2-0.7,0.3
			c-0.3,0.1-0.5,0.1-0.8,0.2l-0.9,0.1c-0.5,0.1-0.9,0.2-1.2,0.3c-0.4,0.3-0.7,0.7-0.7,1.2C104.1,326.3,104.2,326.6,104.5,326.9z"/>
		<path class="st2" d="M116.6,319.6h1.4v1.5c0.1-0.3,0.4-0.6,0.8-1c0.4-0.4,0.9-0.6,1.5-0.6c0,0,0.1,0,0.1,0c0.1,0,0.2,0,0.3,0v1.5
			c-0.1,0-0.2,0-0.2,0c-0.1,0-0.1,0-0.2,0c-0.7,0-1.3,0.2-1.7,0.7c-0.4,0.5-0.6,1-0.6,1.6v4.9h-1.4V319.6z"/>
		<path class="st2" d="M127.9,323.2c-0.1-0.6-0.2-1.1-0.4-1.5c-0.4-0.7-1.1-1-2-1c-0.7,0-1.2,0.2-1.7,0.7c-0.4,0.5-0.7,1.1-0.7,1.8
			H127.9z M127.4,319.9c0.6,0.3,1,0.6,1.3,1.1c0.3,0.4,0.5,0.9,0.6,1.5c0.1,0.4,0.1,1,0.1,1.9h-6.3c0,0.9,0.2,1.6,0.6,2.1
			c0.4,0.5,1,0.8,1.8,0.8c0.8,0,1.4-0.2,1.8-0.7c0.3-0.3,0.4-0.6,0.5-1h1.4c0,0.3-0.2,0.7-0.4,1.1c-0.2,0.4-0.4,0.7-0.7,0.9
			c-0.4,0.4-1,0.7-1.6,0.9c-0.3,0.1-0.7,0.1-1.2,0.1c-1.1,0-2-0.4-2.7-1.2c-0.7-0.8-1.1-1.9-1.1-3.3c0-1.4,0.4-2.5,1.1-3.3
			c0.7-0.9,1.7-1.3,2.9-1.3C126.2,319.4,126.8,319.6,127.4,319.9z"/>
		<path class="st2" d="M135.9,319.9c0.3,0.2,0.5,0.4,0.9,0.8v-4.3h1.4v11.8h-1.3V327c-0.3,0.5-0.7,0.9-1.2,1.1
			c-0.5,0.2-1,0.4-1.6,0.4c-1,0-1.8-0.4-2.5-1.2c-0.7-0.8-1-1.9-1-3.2c0-1.2,0.3-2.3,1-3.2c0.6-0.9,1.5-1.4,2.7-1.4
			C134.9,319.5,135.4,319.6,135.9,319.9z M132.6,326.3c0.4,0.6,1,0.9,1.9,0.9c0.7,0,1.2-0.3,1.6-0.9c0.4-0.6,0.6-1.4,0.6-2.5
			c0-1.1-0.2-1.9-0.7-2.4c-0.4-0.5-1-0.8-1.6-0.8c-0.7,0-1.3,0.3-1.8,0.8c-0.4,0.6-0.7,1.4-0.7,2.4
			C132.1,324.9,132.3,325.7,132.6,326.3z"/>
		<path class="st2" d="M149.5,319.9c0.3,0.2,0.5,0.4,0.9,0.8v-4.3h1.4v11.8h-1.3V327c-0.3,0.5-0.7,0.9-1.2,1.1
			c-0.5,0.2-1,0.4-1.6,0.4c-1,0-1.8-0.4-2.5-1.2c-0.7-0.8-1-1.9-1-3.2c0-1.2,0.3-2.3,1-3.2c0.6-0.9,1.5-1.4,2.7-1.4
			C148.5,319.5,149.1,319.6,149.5,319.9z M146.3,326.3c0.4,0.6,1,0.9,1.9,0.9c0.7,0,1.2-0.3,1.6-0.9c0.4-0.6,0.6-1.4,0.6-2.5
			c0-1.1-0.2-1.9-0.7-2.4c-0.4-0.5-1-0.8-1.6-0.8c-0.7,0-1.3,0.3-1.8,0.8c-0.4,0.6-0.7,1.4-0.7,2.4
			C145.7,324.9,145.9,325.7,146.3,326.3z"/>
		<path class="st2" d="M159.7,323.2c-0.1-0.6-0.2-1.1-0.4-1.5c-0.4-0.7-1.1-1-2-1c-0.7,0-1.2,0.2-1.7,0.7c-0.4,0.5-0.7,1.1-0.7,1.8
			H159.7z M159.2,319.9c0.6,0.3,1,0.6,1.3,1.1c0.3,0.4,0.5,0.9,0.6,1.5c0.1,0.4,0.1,1,0.1,1.9h-6.3c0,0.9,0.2,1.6,0.6,2.1
			c0.4,0.5,1,0.8,1.8,0.8c0.8,0,1.4-0.2,1.8-0.7c0.3-0.3,0.4-0.6,0.5-1h1.4c0,0.3-0.2,0.7-0.4,1.1c-0.2,0.4-0.4,0.7-0.7,0.9
			c-0.4,0.4-1,0.7-1.6,0.9c-0.3,0.1-0.7,0.1-1.2,0.1c-1.1,0-2-0.4-2.7-1.2c-0.7-0.8-1.1-1.9-1.1-3.3c0-1.4,0.4-2.5,1.1-3.3
			c0.7-0.9,1.7-1.3,2.9-1.3C158.1,319.4,158.6,319.6,159.2,319.9z"/>
		<path class="st1" d="M174.6,316.7c0.8,0.3,1.5,0.8,2,1.5c0.4,0.6,0.7,1.2,0.8,1.9c0.1,0.7,0.2,1.3,0.2,1.9c0,1.6-0.3,2.9-0.9,4
			c-0.9,1.5-2.2,2.2-3.9,2.2h-5.1v-11.8h5.1C173.5,316.4,174.1,316.5,174.6,316.7z M170.1,318.4v7.7h2.3c1.2,0,2-0.6,2.4-1.7
			c0.2-0.6,0.4-1.4,0.4-2.2c0-1.2-0.2-2.1-0.6-2.8c-0.4-0.6-1.1-1-2.2-1H170.1z"/>
		<path class="st1" d="M179.4,319.5h2.3v8.7h-2.3V319.5z M181.7,318.4h-2.3v-2.1h2.3V318.4z"/>
		<path class="st1" d="M187.3,322.9c0.4-0.1,0.7-0.1,0.9-0.2c0.3-0.1,0.5-0.4,0.5-0.6c0-0.4-0.1-0.6-0.4-0.7
			c-0.2-0.1-0.6-0.2-1.1-0.2c-0.5,0-0.9,0.1-1.1,0.4c-0.2,0.2-0.3,0.5-0.3,0.8h-2.2c0-0.8,0.3-1.4,0.6-1.9c0.6-0.8,1.6-1.2,3.1-1.2
			c1,0,1.8,0.2,2.5,0.6c0.7,0.4,1.1,1.1,1.1,2.1v4c0,0.3,0,0.6,0,1c0,0.3,0.1,0.5,0.1,0.6c0.1,0.1,0.2,0.2,0.3,0.3v0.3H189
			c-0.1-0.2-0.1-0.3-0.1-0.5c0-0.2,0-0.3-0.1-0.5c-0.3,0.3-0.7,0.6-1.1,0.9c-0.5,0.3-1,0.4-1.7,0.4c-0.8,0-1.4-0.2-2-0.7
			c-0.5-0.5-0.8-1.1-0.8-1.9c0-1.1,0.4-1.8,1.2-2.3c0.5-0.3,1.1-0.4,2-0.6L187.3,322.9z M188.7,323.9c-0.1,0.1-0.3,0.2-0.4,0.2
			c-0.1,0.1-0.3,0.1-0.6,0.2l-0.5,0.1c-0.5,0.1-0.8,0.2-1,0.3c-0.4,0.2-0.5,0.5-0.5,1c0,0.4,0.1,0.7,0.3,0.8
			c0.2,0.2,0.5,0.3,0.8,0.3c0.5,0,0.9-0.1,1.3-0.4c0.4-0.3,0.6-0.8,0.6-1.6V323.9z"/>
		<path class="st1" d="M197.8,319.3c0,0,0.1,0,0.2,0v2.3c-0.1,0-0.3,0-0.4,0c-0.1,0-0.2,0-0.3,0c-0.9,0-1.5,0.3-1.8,0.9
			c-0.2,0.3-0.3,0.9-0.3,1.6v4.2H193v-8.7h2.2v1.5c0.4-0.6,0.7-1,0.9-1.2c0.4-0.4,1-0.5,1.7-0.5
			C197.8,319.3,197.8,319.3,197.8,319.3z"/>
		<path class="st1" d="M199.4,319.5h2.3v8.7h-2.3V319.5z M201.7,318.4h-2.3v-2.1h2.3V318.4z"/>
		<path class="st1" d="M211.2,327.1c-0.7,0.9-1.8,1.4-3.3,1.4c-1.5,0-2.6-0.5-3.3-1.4c-0.7-0.9-1.1-2-1.1-3.3c0-1.3,0.4-2.3,1.1-3.3
			c0.7-0.9,1.8-1.4,3.3-1.4c1.5,0,2.6,0.5,3.3,1.4c0.7,0.9,1.1,2,1.1,3.3C212.3,325.1,211.9,326.2,211.2,327.1z M209.3,325.9
			c0.4-0.5,0.5-1.2,0.5-2c0-0.9-0.2-1.5-0.5-2c-0.4-0.5-0.9-0.7-1.5-0.7c-0.7,0-1.2,0.2-1.5,0.7c-0.4,0.5-0.5,1.1-0.5,2
			c0,0.9,0.2,1.5,0.5,2c0.4,0.5,0.9,0.7,1.5,0.7C208.5,326.6,209,326.3,209.3,325.9z"/>
		<path class="st1" d="M215.7,325.4c0,0.4,0.2,0.7,0.3,0.9c0.3,0.3,0.8,0.5,1.6,0.5c0.4,0,0.8-0.1,1.1-0.2c0.3-0.1,0.4-0.3,0.4-0.6
			c0-0.3-0.1-0.5-0.3-0.6c-0.2-0.1-1-0.4-2.4-0.7c-1-0.2-1.7-0.6-2.1-0.9c-0.4-0.4-0.6-0.9-0.6-1.6c0-0.8,0.3-1.5,0.9-2.1
			c0.6-0.6,1.5-0.9,2.7-0.9c1.1,0,2,0.2,2.7,0.7c0.7,0.4,1.1,1.2,1.2,2.2h-2.3c0-0.3-0.1-0.5-0.2-0.7c-0.3-0.3-0.7-0.5-1.3-0.5
			c-0.5,0-0.8,0.1-1.1,0.2c-0.2,0.2-0.3,0.3-0.3,0.5c0,0.3,0.1,0.5,0.3,0.6c0.2,0.1,1,0.3,2.4,0.6c0.9,0.2,1.6,0.5,2,1
			c0.4,0.4,0.7,1,0.7,1.6c0,0.9-0.3,1.6-1,2.1c-0.6,0.5-1.6,0.8-3,0.8c-1.4,0-2.4-0.3-3-0.9c-0.6-0.6-1-1.3-1-2.2H215.7z"/>
		<path class="st1" d="M228.8,317.6c1-1,2.2-1.5,3.7-1.5c2,0,3.4,0.7,4.3,1.9c0.5,0.7,0.8,1.5,0.8,2.2h-2.5c-0.2-0.6-0.4-1-0.6-1.3
			c-0.4-0.5-1.1-0.8-2-0.8c-0.9,0-1.6,0.4-2.1,1.1c-0.5,0.7-0.8,1.7-0.8,3.1c0,1.3,0.3,2.3,0.8,3c0.5,0.7,1.2,1,2.1,1
			c0.9,0,1.5-0.3,2-0.8c0.2-0.3,0.5-0.8,0.6-1.4h2.4c-0.2,1.3-0.8,2.3-1.6,3.1c-0.9,0.8-2,1.2-3.4,1.2c-1.7,0-3-0.5-4-1.6
			c-1-1.1-1.5-2.6-1.5-4.5C227.2,320.3,227.7,318.7,228.8,317.6z"/>
		<path class="st1" d="M239.4,319.5h2.3v8.7h-2.3V319.5z M241.7,318.4h-2.3v-2.1h2.3V318.4z"/>
		<path class="st1" d="M246.1,319.5v5.2c0,0.5,0.1,0.9,0.2,1.1c0.2,0.4,0.6,0.7,1.2,0.7c0.8,0,1.3-0.3,1.6-0.9
			c0.1-0.3,0.2-0.8,0.2-1.3v-4.7h2.3v8.7h-2.2v-1.2c0,0-0.1,0.1-0.2,0.2c-0.1,0.1-0.2,0.2-0.3,0.4c-0.4,0.3-0.7,0.5-1,0.7
			c-0.3,0.1-0.7,0.2-1.2,0.2c-1.3,0-2.2-0.5-2.6-1.4c-0.3-0.5-0.4-1.3-0.4-2.3v-5.2H246.1z"/>
		<path class="st1" d="M259,325.8c0.3-0.5,0.5-1.1,0.5-1.9c0-1.1-0.3-1.8-0.8-2.3c-0.3-0.3-0.7-0.4-1.1-0.4c-0.7,0-1.2,0.3-1.5,0.8
			c-0.3,0.5-0.5,1.1-0.5,1.9c0,0.8,0.2,1.4,0.5,1.9c0.3,0.5,0.8,0.7,1.4,0.7S258.7,326.3,259,325.8z M258.5,319.6
			c0.4,0.2,0.7,0.5,1,1v-4.2h2.3v11.8h-2.2V327c-0.3,0.5-0.7,0.9-1.1,1.1c-0.4,0.2-0.9,0.4-1.5,0.4c-1,0-1.9-0.4-2.6-1.2
			c-0.7-0.8-1-1.9-1-3.2c0-1.5,0.3-2.7,1-3.5c0.7-0.9,1.6-1.3,2.7-1.3C257.6,319.3,258.1,319.4,258.5,319.6z"/>
		<path class="st1" d="M267.3,322.9c0.4-0.1,0.7-0.1,0.9-0.2c0.3-0.1,0.5-0.4,0.5-0.6c0-0.4-0.1-0.6-0.4-0.7
			c-0.2-0.1-0.6-0.2-1.1-0.2c-0.5,0-0.9,0.1-1.1,0.4c-0.2,0.2-0.3,0.5-0.3,0.8h-2.2c0-0.8,0.3-1.4,0.6-1.9c0.6-0.8,1.6-1.2,3.1-1.2
			c1,0,1.8,0.2,2.5,0.6c0.7,0.4,1.1,1.1,1.1,2.1v4c0,0.3,0,0.6,0,1c0,0.3,0.1,0.5,0.1,0.6c0.1,0.1,0.2,0.2,0.3,0.3v0.3h-2.5
			c-0.1-0.2-0.1-0.3-0.1-0.5c0-0.2,0-0.3-0.1-0.5c-0.3,0.3-0.7,0.6-1.1,0.9c-0.5,0.3-1,0.4-1.7,0.4c-0.8,0-1.4-0.2-2-0.7
			c-0.5-0.5-0.8-1.1-0.8-1.9c0-1.1,0.4-1.8,1.2-2.3c0.5-0.3,1.1-0.4,2-0.6L267.3,322.9z M268.7,323.9c-0.1,0.1-0.3,0.2-0.4,0.2
			c-0.1,0.1-0.3,0.1-0.6,0.2l-0.5,0.1c-0.5,0.1-0.8,0.2-1,0.3c-0.4,0.2-0.5,0.5-0.5,1c0,0.4,0.1,0.7,0.3,0.8
			c0.2,0.2,0.5,0.3,0.8,0.3c0.5,0,0.9-0.1,1.4-0.4c0.4-0.3,0.6-0.8,0.6-1.6V323.9z"/>
		<path class="st1" d="M278.1,325.8c0.3-0.5,0.5-1.1,0.5-1.9c0-1.1-0.3-1.8-0.8-2.3c-0.3-0.3-0.7-0.4-1.2-0.4
			c-0.7,0-1.2,0.3-1.5,0.8c-0.3,0.5-0.5,1.1-0.5,1.9c0,0.8,0.2,1.4,0.5,1.9c0.3,0.5,0.8,0.7,1.4,0.7
			C277.3,326.5,277.8,326.3,278.1,325.8z M277.6,319.6c0.4,0.2,0.7,0.5,1,1v-4.2h2.3v11.8h-2.2V327c-0.3,0.5-0.7,0.9-1.1,1.1
			c-0.4,0.2-0.9,0.4-1.5,0.4c-1,0-1.9-0.4-2.6-1.2c-0.7-0.8-1-1.9-1-3.2c0-1.5,0.3-2.7,1-3.5c0.7-0.9,1.6-1.3,2.7-1.3
			C276.7,319.3,277.2,319.4,277.6,319.6z"/>
		<path class="st1" d="M286.4,322.9c0.4-0.1,0.7-0.1,0.9-0.2c0.3-0.1,0.5-0.4,0.5-0.6c0-0.4-0.1-0.6-0.4-0.7
			c-0.2-0.1-0.6-0.2-1.1-0.2c-0.5,0-0.9,0.1-1.1,0.4c-0.2,0.2-0.3,0.5-0.3,0.8h-2.2c0-0.8,0.3-1.4,0.6-1.9c0.6-0.8,1.6-1.2,3.1-1.2
			c1,0,1.8,0.2,2.5,0.6c0.7,0.4,1.1,1.1,1.1,2.1v4c0,0.3,0,0.6,0,1c0,0.3,0.1,0.5,0.1,0.6c0.1,0.1,0.2,0.2,0.3,0.3v0.3H288
			c-0.1-0.2-0.1-0.3-0.1-0.5c0-0.2,0-0.3-0.1-0.5c-0.3,0.3-0.7,0.6-1.1,0.9c-0.5,0.3-1,0.4-1.7,0.4c-0.8,0-1.4-0.2-2-0.7
			c-0.5-0.5-0.8-1.1-0.8-1.9c0-1.1,0.4-1.8,1.2-2.3c0.5-0.3,1.1-0.4,2-0.6L286.4,322.9z M287.7,323.9c-0.1,0.1-0.3,0.2-0.4,0.2
			c-0.1,0.1-0.3,0.1-0.6,0.2l-0.5,0.1c-0.5,0.1-0.8,0.2-1,0.3c-0.4,0.2-0.5,0.5-0.5,1c0,0.4,0.1,0.7,0.3,0.8
			c0.2,0.2,0.5,0.3,0.8,0.3c0.5,0,0.9-0.1,1.4-0.4c0.4-0.3,0.6-0.8,0.6-1.6V323.9z"/>
		<path class="st1" d="M299.1,320c0.6,0.5,0.9,1.2,0.9,2.3v5.9h-2.3v-5.3c0-0.5-0.1-0.8-0.2-1.1c-0.2-0.4-0.6-0.7-1.3-0.7
			c-0.8,0-1.3,0.3-1.6,1c-0.1,0.3-0.2,0.8-0.2,1.3v4.7h-2.3v-8.7h2.2v1.3c0.3-0.4,0.6-0.8,0.8-1c0.5-0.4,1.1-0.5,1.8-0.5
			C297.8,319.3,298.5,319.5,299.1,320z"/>
		<path class="st1" d="M309.3,327.1c-0.7,0.9-1.8,1.4-3.3,1.4c-1.5,0-2.6-0.5-3.3-1.4c-0.7-0.9-1.1-2-1.1-3.3c0-1.3,0.4-2.3,1.1-3.3
			c0.7-0.9,1.8-1.4,3.3-1.4c1.5,0,2.6,0.5,3.3,1.4c0.7,0.9,1.1,2,1.1,3.3C310.4,325.1,310,326.2,309.3,327.1z M307.5,325.9
			c0.4-0.5,0.5-1.2,0.5-2c0-0.9-0.2-1.5-0.5-2c-0.4-0.5-0.9-0.7-1.5-0.7c-0.7,0-1.2,0.2-1.5,0.7c-0.4,0.5-0.5,1.1-0.5,2
			c0,0.9,0.2,1.5,0.5,2c0.4,0.5,0.9,0.7,1.5,0.7C306.6,326.6,307.1,326.3,307.5,325.9z"/>
		<path class="st1" d="M313.8,325.4c0,0.4,0.2,0.7,0.3,0.9c0.3,0.3,0.8,0.5,1.6,0.5c0.4,0,0.8-0.1,1.1-0.2c0.3-0.1,0.4-0.3,0.4-0.6
			c0-0.3-0.1-0.5-0.3-0.6c-0.2-0.1-1-0.4-2.4-0.7c-1-0.2-1.7-0.6-2.1-0.9c-0.4-0.4-0.6-0.9-0.6-1.6c0-0.8,0.3-1.5,0.9-2.1
			c0.6-0.6,1.5-0.9,2.7-0.9c1.1,0,2,0.2,2.7,0.7c0.7,0.4,1.1,1.2,1.2,2.2h-2.3c0-0.3-0.1-0.5-0.2-0.7c-0.2-0.3-0.7-0.5-1.3-0.5
			c-0.5,0-0.9,0.1-1.1,0.2c-0.2,0.2-0.3,0.3-0.3,0.5c0,0.3,0.1,0.5,0.3,0.6c0.2,0.1,1,0.3,2.4,0.6c0.9,0.2,1.6,0.5,2,1
			c0.4,0.4,0.7,1,0.7,1.6c0,0.9-0.3,1.6-1,2.1c-0.6,0.5-1.6,0.8-3,0.8c-1.4,0-2.4-0.3-3-0.9c-0.6-0.6-1-1.3-1-2.2H313.8z"/>
	</g>
</g>
</svg>
