<svg id="Capa_1" data-name="Capa 1" xmlns="http://www.w3.org/2000/svg" viewBox="0 0 369.87 126.3"><defs><style>.cls-1{fill:#04baee;}.cls-2{fill:#fff;}.cls-3{fill:#c6d54f;}.cls-4{fill:#f29449;}</style></defs><title>logo</title><path class="cls-1" d="M208.61,65.78a21.31,21.31,0,0,1,8.85,1.83,22.31,22.31,0,0,1,7.32,4.88,22.88,22.88,0,0,1,6.71,16.06v22.87h-9.05V88.55a12.41,12.41,0,0,0-1.12-5.28A13.84,13.84,0,0,0,214,76a13.51,13.51,0,0,0-10.77,0,13.34,13.34,0,0,0-4.37,3,13.91,13.91,0,0,0-3,4.37,13.5,13.5,0,0,0-1,5.28v22.87h-9V88.55a12.56,12.56,0,0,0-1.12-5.28,12,12,0,0,0-2.95-4.37,12.2,12.2,0,0,0-4.37-3,13.51,13.51,0,0,0-10.77,0,13.49,13.49,0,0,0-4.38,3,14.08,14.08,0,0,0-2.95,4.37,13.68,13.68,0,0,0-1,5.28v22.87h-9.05V88.55A22.41,22.41,0,0,1,151,79.71a23.23,23.23,0,0,1,4.88-7.22,22.31,22.31,0,0,1,7.32-4.88A21.73,21.73,0,0,1,172,65.78a21.4,21.4,0,0,1,10.37,2.54A22.49,22.49,0,0,1,190.32,75a22.4,22.4,0,0,1,7.93-6.71,21.76,21.76,0,0,1,10.36-2.54" transform="translate(-10.43 -9.48)"/><rect class="cls-1" x="226.44" y="56.3" width="8.94" height="45.64"/><path class="cls-2" d="M294.41,65.58l-23.79,45.74L246.94,65.58H257.1q1.42,2.74,3.25,6.3T264,79l3.56,6.91c1.22,2.23,2.24,4.17,3.05,5.79q1.53-2.94,3.46-6.71t4-7.62c1.29-2.51,2.47-4.81,3.56-6.91s1.93-3.8,2.54-4.88Z" transform="translate(-10.43 -9.48)"/><path class="cls-2" d="M290,88.75a22.4,22.4,0,0,1,1.72-8.84,23.35,23.35,0,0,1,4.88-7.21A22.16,22.16,0,0,1,304,67.82,21.78,21.78,0,0,1,312.81,66a21.29,21.29,0,0,1,8.84,1.83A22.16,22.16,0,0,1,329,72.7a22.83,22.83,0,0,1,6.71,16,21.78,21.78,0,0,1-1.83,8.85,22.31,22.31,0,0,1-4.88,7.32,23.74,23.74,0,0,1-7.32,5,22.4,22.4,0,0,1-8.84,1.72A22.92,22.92,0,0,1,304,109.9a23.74,23.74,0,0,1-7.32-5,24.74,24.74,0,0,1-4.88-7.32A22.92,22.92,0,0,1,290,88.75m8.94,0a14.32,14.32,0,0,0,1,5.39,13.34,13.34,0,0,0,7.42,7.42,14.72,14.72,0,0,0,10.77,0,13.74,13.74,0,0,0,4.37-3,14.43,14.43,0,0,0,4.07-9.86,12.47,12.47,0,0,0-1.12-5.28,13.84,13.84,0,0,0-7.32-7.32A14.09,14.09,0,0,0,303,79.1,13.86,13.86,0,0,0,300,83.47a13.58,13.58,0,0,0-1,5.28" transform="translate(-10.43 -9.48)"/><path class="cls-2" d="M379.39,65.89q-5.7,7.71-10.68,14.83c-1.42,2-2.88,4.1-4.37,6.21s-2.91,4-4.27,6-2.64,3.7-3.86,5.39-2.24,3-3,4.17H380.3v9H335.47q5.59-7.71,10.68-14.84,2.13-3,4.37-6.1c1.56-2.1,3-4.1,4.37-6s2.64-3.76,3.86-5.39,2.24-3.12,3.05-4.27H334.66v-9Z" transform="translate(-10.43 -9.48)"/><path class="cls-1" d="M128.14,69a15.21,15.21,0,0,0-15.21-15.21H57.79v55.14A15.2,15.2,0,0,0,73,124.1H94c6.16,6.89,19.31,11.68,19.31,11.68a35.14,35.14,0,0,1-9-11.68h23.76V69Z" transform="translate(-10.43 -9.48)"/><path class="cls-3" d="M67.92,16.64a7.15,7.15,0,0,0-7.16-7.16h-26v26A7.17,7.17,0,0,0,42,42.6h9.91c2.9,3.24,9.09,5.5,9.09,5.5a16.67,16.67,0,0,1-4.22-5.5H67.92v-26Z" transform="translate(-10.43 -9.48)"/><path class="cls-4" d="M10.43,62.12a8.67,8.67,0,0,1,8.67-8.67H50.53V84.88a8.67,8.67,0,0,1-8.67,8.67h-12c-3.51,3.93-11,6.66-11,6.66A20.1,20.1,0,0,0,24,93.55H10.43V62.12Z" transform="translate(-10.43 -9.48)"/></svg>