<?xml version="1.0" encoding="utf-8"?>
<!-- Generator: Adobe Illustrator 22.0.1, SVG Export Plug-In . SVG Version: 6.00 Build 0)  -->
<svg version="1.1" id="Capa_1" xmlns="http://www.w3.org/2000/svg" xmlns:xlink="http://www.w3.org/1999/xlink" x="0px" y="0px"
	 viewBox="0 0 84.2 101.6" style="enable-background:new 0 0 84.2 101.6;" xml:space="preserve">
<style type="text/css">
	.st0{fill:none;stroke:#000000;stroke-width:3;stroke-miterlimit:10;}
</style>
<title>medios</title>
<path class="st0" d="M78.6,58.5c0-4.9-4.3-8.9-9.7-8.9h-35v32.1c0,4.9,4.3,8.9,9.7,8.9h13.3c3.9,4,12.3,6.8,12.3,6.8
	c-2.4-1.8-4.3-4.2-5.7-6.8h15.1V58.5z"/>
<path class="st0" d="M39.5,22.7c-0.1-2.4-2.1-4.3-4.5-4.2H18.4v15.1c0.1,2.4,2.1,4.3,4.5,4.2h6.3C31.1,39.7,35,41,35,41
	c-1.1-0.9-2-2-2.7-3.2h7.1V22.7z"/>
<path class="st0" d="M2,54.6c0.1-2.9,2.6-5.2,5.5-5.1h20v18.3c-0.1,2.9-2.6,5.2-5.5,5.1h-7.7c-2.2,2.3-7,3.9-7,3.9
	c1.3-1,2.5-2.4,3.2-3.9H2L2,54.6L2,54.6z"/>
</svg>
