<svg id="Capa_1" data-name="Capa 1" xmlns="http://www.w3.org/2000/svg" viewBox="0 0 68 68"><defs><style>.cls-1{fill:#1f252b;}</style></defs><title>proposito</title><path class="cls-1" d="M79.88,13.34a1.08,1.08,0,0,0-1.13-.58L73,13.65l.89-5.79A1.08,1.08,0,0,0,72,6.93l-6.73,6.72a1.07,1.07,0,0,0-.3.6l-1.07,6.91L60.06,25a28.42,28.42,0,1,0,3.73,4.19A1.1,1.1,0,0,0,62.27,29,1.09,1.09,0,0,0,62,30.48a26.48,26.48,0,1,1-3.5-3.93l-5,5a19.39,19.39,0,1,0,3.65,4.38A1.08,1.08,0,1,0,55.37,37,17.29,17.29,0,1,1,52,33l-5,5a10.23,10.23,0,1,0,3.38,5,1.09,1.09,0,1,0-2.08.62A8,8,0,0,1,48.7,46a8.09,8.09,0,1,1-8.09-8.09,8,8,0,0,1,4.9,1.65l-5.67,5.67a1.09,1.09,0,0,0,0,1.53,1.07,1.07,0,0,0,.77.32,1.05,1.05,0,0,0,.77-.32L60.84,27.3l4.61-4.61,6.9-1.06a1.12,1.12,0,0,0,.61-.31l6.72-6.72a1.09,1.09,0,0,0,.2-1.26Zm-12.81,1.6,4.13-4.13-.56,3.62-4.13,4.13Zm4.6,4.6L68,20.1,72.17,16l3.63-.56Z" transform="translate(-12 -6.61)"/></svg>