<?xml version="1.0" encoding="utf-8"?>
<!-- Generator: Adobe Illustrator 22.0.1, SVG Export Plug-In . SVG Version: 6.00 Build 0)  -->
<svg version="1.1" id="Capa_1" xmlns="http://www.w3.org/2000/svg" xmlns:xlink="http://www.w3.org/1999/xlink" x="0px" y="0px"
	 viewBox="0 0 46.2 51" style="enable-background:new 0 0 46.2 51;" xml:space="preserve">
<style type="text/css">
	.st0{fill:#0BBBEF;}
	.st1{fill:#FFFFFF;}
</style>
<title>ticket</title>
<circle class="st0" cx="22.3" cy="24" r="18.4"/>
<path class="st1" d="M29.9,15.5c-0.9-0.5-1.9-0.1-2.4,0.7c0,0,0,0,0,0l-6.4,12l-4.4-5.5c-0.6-0.8-1.6-1-2.4-0.4
	c-0.8,0.6-1,1.6-0.4,2.4c0,0.1,0.1,0.1,0.1,0.2l6.1,7.6c0.3,0.4,0.8,0.6,1.4,0.7h0.2c0.6-0.1,1.1-0.4,1.4-0.9l7.6-14.4
	C31.1,17,30.8,15.9,29.9,15.5L29.9,15.5z"/>
</svg>
