<svg id="Capa_1" data-name="Capa 1" xmlns="http://www.w3.org/2000/svg" viewBox="0 0 71.84 56.69"><defs><style>.cls-1{fill:#1f252b;}</style></defs><title>vision</title><path class="cls-1" d="M16.07,47.13h1.71v14a7.69,7.69,0,0,0,7.67,7.68h6.79a1.9,1.9,0,0,0,1.89-1.9V52.82a1.9,1.9,0,0,0-3.79,0V65H25.45a3.88,3.88,0,0,1-3.87-3.88v-14h18l40,11.41a1.86,1.86,0,0,0,.52.07,1.9,1.9,0,0,0,1.9-1.9V14a1.89,1.89,0,0,0-.76-1.51,1.86,1.86,0,0,0-1.66-.31l-40,11.41H16.07a5.91,5.91,0,0,0-5.91,5.9V41.22a5.92,5.92,0,0,0,5.91,5.91ZM78.2,54.2,41.75,43.79V27L78.2,16.56ZM14,29.53a2.11,2.11,0,0,1,2.11-2.1H38v15.9H16.07A2.12,2.12,0,0,1,14,41.22Z" transform="translate(-10.16 -12.15)"/></svg>